<?xml version="1.0" encoding="UTF-8"?>
<svg width="24px" height="24px" viewBox="0 0 24 24" version="1.1" xmlns="http://www.w3.org/2000/svg" xmlns:xlink="http://www.w3.org/1999/xlink">
    <title>Icon-Delete</title>
    <g id="Icon-Delete" stroke="none" stroke-width="1" fill="none" fill-rule="evenodd">
        <circle id="Background" fill="#302D46" cx="12" cy="12" r="12"></circle>
        <path d="M16.9,20 L7.1,20 C6.3272,20 5.7,19.3653333 5.7,18.5833333 L5.7,7.25 L18.3,7.25 L18.3,18.5833333 C18.3,19.3653333 17.6728,20 16.9,20 Z M12,12.6234167 L14.3051,10.290875 L15.2949,11.2924583 L12.9898,13.625 L15.2949,15.9575417 L14.3051,16.959125 L12,14.6265833 L9.6949,16.959125 L8.7051,15.9575417 L11.0102,13.625 L8.7051,11.2924583 L9.6949,10.290875 L12,12.6234167 L12,12.6234167 Z M19,6.54166667 L5,6.54166667 L5,5.125 L9.2,5.125 L9.2,4.0625 C9.2,3.47670833 9.6711,3 10.25,3 L13.75,3 C14.3275,3 14.8,3.47529167 14.8,4.0625 L14.8,5.125 L19,5.125 L19,6.54166667 Z M13.4,4.41666667 L10.6,4.41666667 L10.6,5.125 L13.4,5.125 L13.4,4.41666667 Z" id="Shape" fill="#FFFFFF"></path>
    </g>
</svg>