<?xml version="1.0" encoding="UTF-8"?>
<svg width="32px" height="32px" viewBox="0 0 32 32" version="1.1" xmlns="http://www.w3.org/2000/svg" xmlns:xlink="http://www.w3.org/1999/xlink">
    <title>Icon-Hot</title>
    <g id="Icon-Hot" stroke="none" stroke-width="1" fill="none" fill-rule="evenodd">
        <g id="Group">
            <path d="M16,1 C20.141875,1 23.8918653,2.67907887 26.6063932,5.39360678 C29.3209211,8.1081347 31,11.858125 31,16 C31,20.141875 29.3209211,23.8918653 26.6063932,26.6063932 C23.8918653,29.3209211 20.141875,31 16,31 C11.858125,31 8.1081347,29.3209211 5.39360678,26.6063932 C2.67907887,23.8918653 1,20.141875 1,16 C1,11.858125 2.67907887,8.1081347 5.39360678,5.39360678 C8.1081347,2.67907887 11.858125,1 16,1 Z" id="Background" stroke="#302D46" stroke-width="2" fill="#FFFFFF" fill-rule="nonzero"></path>
            <path d="M12.625,4 C13.235,11.1889486 7,13.6639309 7,19.9958856 C7,24.2968548 10.069,27.9678285 16,28 C21.931,28.0318281 25,23.5858599 25,19.0438924 C25,14.902922 22.938,10.9979499 19.048,8.5699673 C19.972,11.1769487 18.742,13.5579316 17.547,14.3779258 C17.617,11.0409496 16.422,6.08898505 12.625,4 Z M17.1388479,17 C20.7230481,20.989 18.5219387,26 15.6431244,26 C13.8915912,26 12.9905299,24.735 13.000075,23.423 C13.0182108,20.99 15.61258,20.988 17.1388479,17 Z" id="Shape" stroke="#892E2F" fill="#EF392A"></path>
        </g>
    </g>
</svg>