<?xml version="1.0" encoding="UTF-8"?>
<svg width="40px" height="40px" viewBox="0 0 40 40" version="1.1" xmlns="http://www.w3.org/2000/svg" xmlns:xlink="http://www.w3.org/1999/xlink">
    <title>Side-Awesome Ranking-Icon</title>
    <g id="Side-Awesome-Ranking-Icon" stroke="none" stroke-width="1" fill="none" fill-rule="evenodd">
        <g id="Group">
            <rect id="Background" stroke="#EF392A" stroke-width="2" fill="#FFFFFF" x="1" y="1" width="38" height="30" rx="4"></rect>
            <path d="M8.75,18.75 C10.8210678,18.75 12.5,17.9105339 12.5,16.875 C12.5,15.8394661 10.8210678,15 8.75,15 C6.67893219,15 5,15.8394661 5,16.875 C5,17.9105339 6.67893219,18.75 8.75,18.75 Z M31.25,18.75 C33.3210678,18.75 35,17.9105339 35,16.875 C35,15.8394661 33.3210678,15 31.25,15 C29.1789322,15 27.5,15.8394661 27.5,16.875 C27.5,17.9105339 29.1789322,18.75 31.25,18.75 Z" id="Combined-Shape" fill="#EF392A"></path>
            <path d="M20.7348165,13.5 C21.4137432,13.5 22.0171926,13.5183371 22.4046387,13.83887 C22.6778261,14.064877 22.7567069,14.4602598 22.7567069,15 C22.7567069,16.0523008 22.3828885,17.6995838 21.7737302,18.9349346 C21.5575481,19.3733439 21.3157803,19.7602665 21.0360376,20.0206783 C20.0292116,19.7437902 19.7754186,19.3489853 19.5481225,18.9018057 C18.9234572,17.6728467 18.5255798,16.0434473 18.5255798,15 C18.5255798,14.4764479 18.6304427,14.0957859 18.9150975,13.8740394 C19.3531824,13.5327707 20.0196619,13.5 20.7348165,13.5 Z" id="Oval" stroke="#263E7D" stroke-width="2"></path>
            <path d="M10,13.75 C11.3807119,13.75 12.5,12.6307119 12.5,11.25 C12.5,9.86928813 11.3807119,8.75 10,8.75 C8.61928813,8.75 7.5,9.86928813 7.5,11.25 C7.5,12.6307119 8.61928813,13.75 10,13.75 Z M30,13.75 C31.3807119,13.75 32.5,12.6307119 32.5,11.25 C32.5,9.86928813 31.3807119,8.75 30,8.75 C28.6192881,8.75 27.5,9.86928813 27.5,11.25 C27.5,12.6307119 28.6192881,13.75 30,13.75 Z" id="Combined-Shape" fill="#263E7D"></path>
            <path d="M6.8125,27 C7.1175,30.8940138 4,32.2346292 4,35.664438 C4,37.9941297 5.5345,39.9825738 8.5,40 C11.4655,40.0172402 13,37.6090074 13,35.148775 C13,32.9057494 11.969,30.7905562 10.024,29.475399 C10.486,30.8875139 9.871,32.177213 9.2735,32.6213764 C9.3085,30.8138477 8.711,28.1315336 6.8125,27 Z M9.37961597,34 C10.5743494,36.2161111 9.84064625,39 8.88104147,39 C8.29719705,39 7.9968433,38.2972222 8.00002502,37.5683333 C8.00607027,36.2166667 8.87085999,36.2155556 9.37961597,34 Z M19.0852607,27 C19.3902607,30.8940138 16.2727607,32.2346292 16.2727607,35.664438 C16.2727607,37.9941297 17.8072607,39.9825738 20.7727607,40 C23.7382607,40.0172402 25.2727607,37.6090074 25.2727607,35.148775 C25.2727607,32.9057494 24.2417607,30.7905562 22.2967607,29.475399 C22.7587607,30.8875139 22.1437607,32.177213 21.5462607,32.6213764 C21.5812607,30.8138477 20.9837607,28.1315336 19.0852607,27 Z M20.6523767,34 C21.8471101,36.2161111 21.113407,39 20.1538022,39 C19.5699578,39 19.269604,38.2972222 19.2727857,37.5683333 C19.278831,36.2166667 20.1436207,36.2155556 20.6523767,34 Z M30.3580215,27 C30.6630215,30.8940138 27.5455215,32.2346292 27.5455215,35.664438 C27.5455215,37.9941297 29.0800215,39.9825738 32.0455215,40 C35.0110215,40.0172402 36.5455215,37.6090074 36.5455215,35.148775 C36.5455215,32.9057494 35.5145215,30.7905562 33.5695215,29.475399 C34.0315215,30.8875139 33.4165215,32.177213 32.8190215,32.6213764 C32.8540215,30.8138477 32.2565215,28.1315336 30.3580215,27 Z M31.9251374,34 C33.1198708,36.2161111 32.3861677,39 31.4265629,39 C30.8427185,39 30.5423648,38.2972222 30.5455465,37.5683333 C30.5515917,36.2166667 31.4163815,36.2155556 31.9251374,34 Z" id="Combined-Shape" stroke="#892E2F" fill="#EF392A"></path>
        </g>
    </g>
</svg>