<?xml version="1.0" encoding="UTF-8"?>
<svg width="40px" height="40px" viewBox="0 0 40 40" version="1.1" xmlns="http://www.w3.org/2000/svg" xmlns:xlink="http://www.w3.org/1999/xlink">
    <title>Side-Hot Tags-Icon</title>
    <g id="Side-Hot-Tags-Icon" stroke="none" stroke-width="1" fill="none" fill-rule="evenodd">
        <path d="M2.44832829,26.9999221 C2.75332829,30.8939359 -0.364171714,32.2345514 -0.364171714,35.6643602 C-0.364171714,37.9940518 1.17032829,39.9824959 4.13582829,39.9999221 C7.10132829,40.0171623 8.63582829,37.6089296 8.63582829,35.1486972 C8.63582829,32.9056716 7.60482829,30.7904784 5.65982829,29.4753211 C6.12182829,30.887436 5.50682829,32.1771351 4.90932829,32.6212986 C4.94432829,30.8137699 4.34682829,28.1314557 2.44832829,26.9999221 Z M5.01544425,33.9999221 C6.21017765,36.2160333 5.47647453,38.9999221 4.51686976,38.9999221 C3.93302534,38.9999221 3.63267159,38.2971444 3.6358533,37.5682555 C3.64189856,36.2165888 4.50668827,36.2154777 5.01544425,33.9999221 Z M34.4486963,26.9999221 C34.7536963,30.8939359 31.6361963,32.2345514 31.6361963,35.6643602 C31.6361963,37.9940518 33.1706963,39.9824959 36.1361963,39.9999221 C39.1016963,40.0171623 40.6361963,37.6089296 40.6361963,35.1486972 C40.6361963,32.9056716 39.6051963,30.7904784 37.6601963,29.4753211 C38.1221963,30.887436 37.5071963,32.1771351 36.9096963,32.6212986 C36.9446963,30.8137699 36.3471963,28.1314557 34.4486963,26.9999221 Z M36.0158123,33.9999221 C37.2105457,36.2160333 36.4768426,38.9999221 35.5172378,38.9999221 C34.9333934,38.9999221 34.6330396,38.2971444 34.6362214,37.5682555 C34.6422666,36.2165888 35.5070563,36.2154777 36.0158123,33.9999221 Z M3.08452463,-0.00015571605 C3.38952463,3.89385809 0.272024625,5.2344735 0.272024625,8.6642823 C0.272024625,10.993974 1.80652463,12.9824181 4.77202463,12.9998443 C7.73752463,13.0170845 9.27202463,10.6088517 9.27202463,8.14861932 C9.27202463,5.9055937 8.24102463,3.7904005 6.29602463,2.47524324 C6.75802463,3.88735814 6.14302463,5.17705724 5.54552463,5.62122073 C5.58052463,3.813692 4.98302463,1.13137786 3.08452463,-0.00015571605 Z M4.65164059,6.99984428 C5.84637399,9.2159554 5.11267087,11.9998443 4.15306609,11.9998443 C3.56922168,11.9998443 3.26886793,11.2970665 3.27204964,10.5681776 C3.2780949,9.21651095 4.14288461,9.21539984 4.65164059,6.99984428 Z M33.9028068,-0.000311432101 C34.2078068,3.89370238 31.0903068,5.23431778 31.0903068,8.66412658 C31.0903068,10.9938182 32.6248068,12.9822624 35.5903068,12.9996886 C38.5558068,13.0169288 40.0903068,10.608696 40.0903068,8.1484636 C40.0903068,5.90543798 39.0593068,3.79024478 37.1143068,2.47508752 C37.5763068,3.88720242 36.9613068,5.17690153 36.3638068,5.62106502 C36.3988068,3.81353628 35.8013068,1.13122214 33.9028068,-0.000311432101 Z M35.4699228,6.99968857 C36.6646562,9.21579968 35.9309531,11.9996886 34.9713483,11.9996886 C34.3875039,11.9996886 34.0871501,11.2969108 34.0903318,10.5680219 C34.0963771,9.21635523 34.9611668,9.21524412 35.4699228,6.99968857 Z" id="Combined-Shape" stroke="#892E2F" fill="#EF392A"></path>
        <g id="#" transform="translate(12.263672, 9.159180)" fill="#FD7700" fill-rule="nonzero">
            <path d="M1.9921875,16.4941406 L0,16.4941406 L0,13.2714844 L2.63671875,13.2714844 L3.515625,8.95019531 L0,8.95019531 L0,5.71289062 L4.17480469,5.71289062 L5.33203125,0 L8.61328125,0 L7.45605469,5.71289062 L10.6933594,5.71289062 L11.8212891,0 L15.2197266,0 L14.0478516,5.71289062 L16.0693359,5.71289062 L16.0693359,8.95019531 L13.3886719,8.95019531 L12.5097656,13.2714844 L16.0693359,13.2714844 L16.0693359,16.4941406 L11.8505859,16.4941406 L10.6933594,22.2070312 L7.42675781,22.2070312 L8.5546875,16.4941406 L5.30273438,16.4941406 L4.14550781,22.2070312 L0.834960938,22.2070312 L1.9921875,16.4941406 Z M6.81152344,8.95019531 L5.94726562,13.2714844 L9.19921875,13.2714844 L10.0488281,8.95019531 L6.81152344,8.95019531 Z" id="Shape"></path>
        </g>
    </g>
</svg>