<?xml version="1.0" encoding="UTF-8"?>
<svg width="32px" height="32px" viewBox="0 0 32 32" version="1.1" xmlns="http://www.w3.org/2000/svg" xmlns:xlink="http://www.w3.org/1999/xlink">
    <title>Icon-Inbox</title>
    <g id="Icon-Inbox" stroke="none" stroke-width="1" fill="none" fill-rule="evenodd">
        <g id="Group" fill-rule="nonzero">
            <path d="M16,0 C7.164,0 0,7.164 0,16 C0,24.836 7.164,32 16,32 C24.836,32 32,24.836 32,16 C32,7.164 24.836,0 16,0 Z" id="Background" fill="#302D46"></path>
            <g id="Shape" transform="translate(16.000000, 16.500000) scale(-1, 1) rotate(-180.000000) translate(-16.000000, -16.500000) translate(4.000000, 6.000000)" fill="#FFFFFF">
                <path d="M18.636655,20.9952432 C16.8470859,20.8692791 14.5998073,20.3450464 11.4802545,19.3262195 C8.69648036,18.416685 4.98040452,16.9921798 1.80082423,15.6121325 C1.54383161,15.4991353 1.27370797,15.3879906 1.20054949,15.3620568 C0.793488178,15.2175686 0.482095654,14.9285923 0.271999494,14.4969802 C0.165075555,14.2783955 0.0994205046,14.0635156 0.0412688887,13.7541628 L0,13.5318733 L0,8.83786 L0,4.14569916 L3.35778685,2.13768402 C5.20363169,1.03364617 6.74371158,0.100030275 6.78122876,0.0648344372 C6.84875967,0 6.84875967,0 7.02133865,0 C7.17703492,0 7.19391764,0.00370482498 7.19391764,0.0351958374 C7.19391764,0.0592771998 7.22205552,0.0815061497 7.282083,0.107439925 C7.36086906,0.140783349 8.80528016,0.731702934 13.3279752,2.58596784 C14.0351739,2.87494419 16.7232792,3.97712962 19.3025848,5.03485715 L23.9922312,6.95766132 L23.9978588,11.4479092 C24.0034864,16.099317 24.0034864,16.1789707 23.9265762,16.5865015 C23.6189353,18.2407058 22.5947166,19.6189007 20.9627196,20.576598 C20.5819203,20.7988875 20.3136725,20.8915081 19.8353286,20.9618998 C19.6458669,20.9878335 18.8636339,21.0100625 18.636655,20.9952432 Z M19.4526534,20.4321098 C20.0735626,20.3895043 20.3249277,20.3098506 20.8351612,19.9949404 C22.2139173,19.1428307 23.1030742,17.918386 23.3638186,16.512405 C23.4388529,16.1104314 23.4407288,15.991877 23.4351012,11.590545 L23.4294736,7.33370106 L15.3445232,4.0178827 C10.8968625,2.1951088 7.24456582,0.700211922 7.2276831,0.692802272 C7.1957935,0.68354021 7.19391764,0.909534534 7.19391764,5.25529424 C7.19391764,8.20989217 7.18641421,9.89743995 7.17515906,10.0252564 C7.01195936,11.7146566 6.07027836,13.2558638 4.53957776,14.3395251 C3.9486823,14.7581703 3.13080797,15.1823728 2.68810534,15.3009272 C2.63745716,15.3138941 2.59806413,15.3287134 2.59806413,15.336123 C2.59806413,15.3416803 2.86631191,15.4583822 3.19458716,15.5954608 C11.0056623,18.861264 16.8752238,20.6062366 19.4526534,20.4321098 Z M2.06344443,14.8841344 C2.25665787,14.8582006 2.50239534,14.7933662 2.66371918,14.7285317 L2.75751211,14.6914835 L2.22851999,14.6914835 L1.69765201,14.6896311 L1.69765201,14.743351 C1.69765201,14.7729896 1.69202444,14.8230048 1.68639686,14.8544958 L1.67514171,14.9119206 L1.77456221,14.9119206 C1.83083797,14.9119206 1.96027221,14.8989537 2.06344443,14.8841344 Z"></path>
                <path d="M19.3356403,12.7253406 C11.2838677,9.29400545 10.0316216,8.76185286 9.82574707,8.6893733 C9.26100862,8.49291553 8.9606962,8.22588556 9.00413762,7.9626703 C9.03058022,7.80626703 9.23645478,7.59073569 9.47632696,7.47057221 L9.55943228,7.42861035 L11.671063,8.32888283 C12.8326488,8.82288828 14.1736665,9.39318801 14.6496333,9.5972752 C15.1256002,9.8013624 15.5222392,9.96730245 15.5279055,9.96730245 C15.5335718,9.96730245 15.5335718,9.67356948 15.5279055,9.31498638 C15.5203505,8.95449591 15.5052404,8.09427793 15.4939079,7.40190736 C15.4806866,6.70953678 15.469354,6.1106267 15.4674653,6.07247956 C15.4655765,6.03242507 15.4712428,6 15.4825753,6 C15.4920191,6.00190736 16.4326203,6.3986376 17.5696522,6.88310627 L19.6378415,7.76621253 L19.6793941,8.36512262 C19.7020592,8.69509537 19.7473894,9.3359673 19.7776095,9.78610354 C19.8097184,10.2381471 19.8701586,11.1002725 19.9117113,11.7029973 C19.953264,12.3057221 19.9910391,12.8455041 19.9967054,12.9008174 C20.0023716,12.9542234 20.0004829,13 19.9929279,13 C19.9834841,13 19.6888379,12.8760218 19.3356403,12.7253406 Z" id="Path"></path>
            </g>
        </g>
    </g>
</svg>