<?xml version="1.0" encoding="UTF-8"?>
<svg width="24px" height="24px" viewBox="0 0 24 24" version="1.1" xmlns="http://www.w3.org/2000/svg" xmlns:xlink="http://www.w3.org/1999/xlink">
    <title>Icon-Clear</title>
    <g id="Icon-Clear" stroke="none" stroke-width="1" fill="none" fill-rule="evenodd">
        <g id="Group">
            <circle id="Background" stroke="#302D46" stroke-width="2" fill="#FFFFFF" cx="12" cy="12" r="11"></circle>
            <path d="M7.77466667,20 L4.19533333,16.3420455 C4.06533333,16.2090909 4,16.0352273 4,15.86 C4,15.6854545 4.06533333,15.5109091 4.19533333,15.3779545 L14.148,5.19977273 C14.278,5.0675 14.4486667,5 14.6193333,5 C14.7893333,5 14.9606667,5.0675 15.0906667,5.19977273 L19.8046667,10.0222727 C19.9353333,10.1552273 20,10.3297727 20,10.505 C20,10.6795455 19.9353333,10.8534091 19.8046667,10.9870455 L12.3273333,18.6363636 L16.0033333,18.6363636 L16.0033333,20 L7.77466667,20 Z M10,19 L6.02751629,15 L5,16.030988 L7.95148443,19 L10,19 Z M10.1120275,11 L7,14.1114165 L10.8886598,18 L14,14.8872092 L10.1120275,11 Z" id="Shape" fill="#263E7D"></path>
        </g>
    </g>
</svg>