<?xml version="1.0" encoding="UTF-8"?>
<svg width="24px" height="24px" viewBox="0 0 24 24" version="1.1" xmlns="http://www.w3.org/2000/svg" xmlns:xlink="http://www.w3.org/1999/xlink">
    <title>Icon-Ignore</title>
    <g id="Icon-Ignore" stroke="none" stroke-width="1" fill="none" fill-rule="evenodd">
        <g id="Group">
            <circle id="Background" fill="#302D46" cx="12" cy="12" r="12"></circle>
            <path d="M18.7209192,3 L15.6963224,5.8904607 C14.5483134,5.49609756 13.2683287,5.24639566 11.8608878,5.24639566 C5.01893525,5.24639566 1,11.2825474 1,11.2825474 C1,11.2825474 2.74280413,14.001626 5.65169608,16.016748 L3.02031495,18.6971274 L4.29849184,20 L20,4.30379404 L18.7209192,3 Z M13.0563369,7.29973346 C10.0642786,5.89144657 6.97667108,9.14901866 8.26522171,12.3455294 L6.69457313,14 C5.04384514,12.8756966 3.75984447,11.4315483 3,10.452629 C4.35862012,8.85534286 7.38343812,6 11.6249173,6 C12.4684811,6 13.2592654,6.11533802 14,6.30530652 L13.0563369,7.29973346 L13.0563369,7.29973346 Z M10,15.7845386 L14.8101186,11 C15.7711973,13.9811135 12.9172566,16.8136983 10,15.7845386 Z M23,12.0418648 C23,12.0418648 19.2409699,19 12.4045213,19 C11.1854004,19 10.0511493,18.728176 9,18.3115659 L10.4268755,16.8328804 C11.0589795,17.0131624 11.7158373,17.1317935 12.4045213,17.1317935 C16.6400606,17.1317935 19.5689568,13.8372113 20.8066431,12.1212636 C20.1621622,11.3534307 19.0774185,10.2623981 17.635514,9.36379076 L18.9518818,8 C21.5881536,9.7747962 23,12.0418648 23,12.0418648 L23,12.0418648 Z" id="Shape" fill="#FFFFFF" fill-rule="nonzero"></path>
        </g>
    </g>
</svg>