<?xml version="1.0" encoding="UTF-8"?>
<svg width="32px" height="32px" viewBox="0 0 32 32" version="1.1" xmlns="http://www.w3.org/2000/svg" xmlns:xlink="http://www.w3.org/1999/xlink">
    <title>Icon-Settings</title>
    <g id="Icon-Settings" stroke="none" stroke-width="1" fill="none" fill-rule="evenodd">
        <g id="Group" fill-rule="nonzero">
            <path d="M16,0 C7.164,0 0,7.164 0,16 C0,24.836 7.164,32 16,32 C24.836,32 32,24.836 32,16 C32,7.164 24.836,0 16,0 Z" id="Path" fill="#302D46"></path>
            <path d="M28,17.616 L28,14.384 L25.131,13.364 C24.933,12.677 24.659,12.022 24.32,11.409 L25.628,8.658 L23.343,6.373 L20.592,7.68 C19.979,7.341 19.323,7.067 18.637,6.869 L17.616,4 L14.384,4 L13.363,6.869 C12.677,7.067 12.021,7.34 11.408,7.68 L8.657,6.372 L6.372,8.657 L7.68,11.409 C7.341,12.022 7.066,12.677 6.869,13.364 L4,14.384 L4,17.616 L6.869,18.636 C7.066,19.323 7.341,19.978 7.68,20.591 L6.372,23.342 L8.657,25.628 L11.408,24.32 C12.021,24.659 12.677,24.933 13.363,25.131 L14.384,28 L17.616,28 L18.637,25.131 C19.324,24.933 19.979,24.659 20.592,24.32 L23.343,25.628 L25.628,23.342 L24.32,20.591 C24.659,19.978 24.933,19.323 25.131,18.636 L28,17.616 Z" id="Path" fill="#FFFFFF"></path>
            <path d="M16,20 C13.791,20 12,18.209 12,16 C12,13.791 13.791,12 16,12 C18.209,12 20,13.791 20,16 C20,18.209 18.209,20 16,20 Z" id="Path" fill="#302D46"></path>
        </g>
    </g>
</svg>