<?xml version="1.0" encoding="UTF-8"?>
<svg width="80px" height="80px" viewBox="0 0 80 80" version="1.1" xmlns="http://www.w3.org/2000/svg" xmlns:xlink="http://www.w3.org/1999/xlink">
    <title>Icon-Wall Scroll-Selected</title>
    <g id="Icon-Wall-Scroll-Selected" stroke="none" stroke-width="1" fill="none" fill-rule="evenodd">
        <rect id="Rectangle" stroke="#979797" fill="#AAFFC9" x="0.5" y="0.5" width="79" height="79"></rect>
        <g id="Group">
            <path d="M80,0 L80,80 L0,80 L0,0 L80,0 Z M64,6 L16,6 L16,78 L64,78 L64,6 Z" id="Combined-Shape" fill="#FFFFFF"></path>
            <g id="Frame" transform="translate(6.000000, 0.625000)">
                <polygon id="Path-4" stroke="#979797" stroke-width="2" points="10 5.375 10 77.375 58 77.375 57.8111888 5.375"></polygon>
                <path d="M3,5.375 L65,5.375 C65.4166021,6.13614457 66.0832688,6.46947791 67,6.375 C68.3750968,6.23328314 69,5.375 69,4.375 C69,3.375 67.6689113,2.54222782 67,2.375 C66.5540591,2.26351478 65.8873925,2.59684812 65,3.375 L3,3.375 C3,2.70833333 2.66666667,2.375 2,2.375 C1,2.375 0,3.375 0,4.375 C0,5.375 1,6.375 2,6.375 C2.66666667,6.375 3,6.04166667 3,5.375 Z" id="Line" fill="#A6A6A6"></path>
                <path d="M3,78.375 L65,78.375 C65.4166021,79.1361446 66.0832688,79.4694779 67,79.375 C68.3750968,79.2332831 69,78.375 69,77.375 C69,76.375 67.6689113,75.5422278 67,75.375 C66.5540591,75.2635148 65.8873925,75.5968481 65,76.375 L3,76.375 C3,75.7083333 2.66666667,75.375 2,75.375 C1,75.375 0,76.375 0,77.375 C0,78.375 1,79.375 2,79.375 C2.66666667,79.375 3,79.0416667 3,78.375 Z" id="Line" fill="#A6A6A6" transform="translate(34.500000, 77.372346) scale(-1, 1) translate(-34.500000, -77.372346) "></path>
                <path d="M13,0.375 C14.5,-0.125 15.5,-0.125 16,0.375 C16.5,0.875 16.5,1.875 16,3.375" id="Path-10" stroke="#979797" stroke-width="2"></path>
                <path d="M40,0.375 C41.5,-0.125 42.5,-0.125 43,0.375 C43.5,0.875 43.5,1.875 43,3.375" id="Path-10" stroke="#979797" stroke-width="2"></path>
            </g>
        </g>
    </g>
</svg>