<?xml version="1.0" encoding="UTF-8"?>
<svg width="32px" height="32px" viewBox="0 0 32 32" version="1.1" xmlns="http://www.w3.org/2000/svg" xmlns:xlink="http://www.w3.org/1999/xlink">
    <title>Icon-Follow</title>
    <g id="Icon-Follow" stroke="none" stroke-width="1" fill="none" fill-rule="evenodd">
        <g id="Group">
            <path d="M16,1 C20.141875,1 23.8918653,2.67907887 26.6063932,5.39360678 C29.3209211,8.1081347 31,11.858125 31,16 C31,20.141875 29.3209211,23.8918653 26.6063932,26.6063932 C23.8918653,29.3209211 20.141875,31 16,31 C11.858125,31 8.1081347,29.3209211 5.39360678,26.6063932 C2.67907887,23.8918653 1,20.141875 1,16 C1,11.858125 2.67907887,8.1081347 5.39360678,5.39360678 C8.1081347,2.67907887 11.858125,1 16,1 Z" id="Background" stroke="#302D46" stroke-width="2" fill="#263E7D" fill-rule="nonzero"></path>
            <g id="Shape" transform="translate(4.000000, 4.000000)">
                <path d="M12,0 C5.37066667,0 0,5.37333333 0,12 C0,18.6266667 5.37066667,24 12,24 C18.624,24 24,18.6266667 24,12 C24,5.37333333 18.624,0 12,0 L12,0 Z" id="Path" fill="#AAFFC9"></path>
                <polygon fill="#263E7D" fill-rule="nonzero" points="20.5714286 14.8571429 14.8571429 14.8571429 14.8571429 20.5714286 10.2857143 20.5714286 10.2857143 14.8571429 4.57142857 14.8571429 4.57142857 10.2857143 10.2857143 10.2857143 10.2857143 4.57142857 14.8571429 4.57142857 14.8571429 10.2857143 20.5714286 10.2857143"></polygon>
            </g>
        </g>
    </g>
</svg>