<?xml version="1.0" encoding="UTF-8"?>
<svg width="80px" height="80px" viewBox="0 0 80 80" version="1.1" xmlns="http://www.w3.org/2000/svg" xmlns:xlink="http://www.w3.org/1999/xlink">
    <title>Icon-Tshirt-Selected</title>
    <g id="Icon-Tshirt-Selected" stroke="none" stroke-width="1" fill="none" fill-rule="evenodd">
        <rect id="Rectangle" stroke="#979797" fill="#AAFFC9" x="0.5" y="0.5" width="79" height="79"></rect>
        <path d="M80,0 L80,80 L0,80 L0,0 L80,0 Z M59,20 L23,20 L23,68 L59,68 L59,20 Z" id="Combined-Shape" fill="#FFFFFF"></path>
        <g id="Group">
            <path d="M80,0 L80,80 L0,80 L0,0 L80,0 Z M58,19 L22,19 L22,67 L58,67 L58,19 Z" id="Combined-Shape" fill="#FFFFFF"></path>
            <path d="M32.5037636,1.23418283 C36.2684552,6.1087407 39.1461464,8.27272727 41.025641,8.27272727 C42.8985399,8.27272727 45.7626416,6.12390235 49.5087899,1.28622399 C55.2484398,4.3716071 59.8896332,6.61022985 63.4309438,8.00529161 C66.9082372,9.37513446 71.9324981,10.9584305 78.5040566,12.7527079 C76.5371209,16.3631468 75.3485571,19.3258366 74.9146589,21.6333861 C74.4710489,23.9925849 74.4304129,27.7604572 74.8157823,32.9393939 L74.8157823,32.9393939 L64.6410256,32.9393939 L64.6410256,79 L15.3589744,79 L15.3589744,32.9393939 L7.00425487,32.9393939 C6.43811007,29.5350529 5.79121728,26.5456856 5.06501378,23.9709641 C4.33336759,21.3769458 3.08071778,17.645872 1.30551136,12.7782247 L1.30551136,12.7782247 L16.7559727,8.21331743 Z" id="Path-2" stroke="#979797" stroke-width="2"></path>
            <path d="M17,12 C18.5629799,15.4361174 19.2296465,18.4361174 19,21 C18.7703535,23.5638826 17.1036868,27.897216 14,34" id="Path-3" stroke="#979797"></path>
            <path d="M63.9558713,13 C65.5188512,16.4361174 66.1855178,19.4361174 65.9558713,22 C65.7262247,24.5638826 64.3928914,28.5638826 61.9558713,34" id="Path-3" stroke="#979797" transform="translate(63.977936, 23.500000) scale(-1, 1) translate(-63.977936, -23.500000) "></path>
        </g>
    </g>
</svg>