<?xml version="1.0" encoding="UTF-8"?>
<svg width="24px" height="24px" viewBox="0 0 24 24" version="1.1" xmlns="http://www.w3.org/2000/svg" xmlns:xlink="http://www.w3.org/1999/xlink">
    <title>Icon-Ins</title>
    <g id="Icon-Ins" stroke="none" stroke-width="1" fill="none" fill-rule="evenodd">
        <circle id="Background" stroke="#302D46" fill="#FFFFFF" cx="12" cy="12" r="11.5"></circle>
        <path d="M12.5,6.351875 C14.5025,6.351875 14.74,6.359375 15.53125,6.395625 C17.56375,6.488125 18.513125,7.4525 18.605625,9.47 C18.641875,10.260625 18.64875,10.498125 18.64875,12.500625 C18.64875,14.50375 18.64125,14.740625 18.605625,15.53125 C18.5125,17.546875 17.565625,18.513125 15.53125,18.605625 C14.74,18.641875 14.50375,18.649375 12.5,18.649375 C10.4975,18.649375 10.26,18.641875 9.469375,18.605625 C7.431875,18.5125 6.4875,17.54375 6.395,15.530625 C6.35875,14.74 6.35125,14.503125 6.35125,12.5 C6.35125,10.4975 6.359375,10.260625 6.395,9.469375 C6.488125,7.4525 7.435,6.4875 9.469375,6.395 C10.260625,6.359375 10.4975,6.351875 12.5,6.351875 L12.5,6.351875 Z M12.5,5 C10.463125,5 10.208125,5.00875 9.408125,5.045 C6.684375,5.17 5.170625,6.68125 5.045625,9.4075 C5.00875,10.208125 5,10.463125 5,12.5 C5,14.536875 5.00875,14.7925 5.045,15.5925 C5.17,18.31625 6.68125,19.83 9.4075,19.955 C10.208125,19.99125 10.463125,20 12.5,20 C14.536875,20 14.7925,19.99125 15.5925,19.955 C18.31375,19.83 19.83125,18.31875 19.954375,15.5925 C19.99125,14.7925 20,14.536875 20,12.5 C20,10.463125 19.99125,10.208125 19.955,9.408125 C19.8325,6.686875 18.319375,5.170625 15.593125,5.045625 C14.7925,5.00875 14.536875,5 12.5,5 Z M12.5,8.64875 C10.373125,8.64875 8.64875,10.373125 8.64875,12.5 C8.64875,14.626875 10.373125,16.351875 12.5,16.351875 C14.626875,16.351875 16.35125,14.6275 16.35125,12.5 C16.35125,10.373125 14.626875,8.64875 12.5,8.64875 Z M12.5,15 C11.119375,15 10,13.88125 10,12.5 C10,11.119375 11.119375,10 12.5,10 C13.880625,10 15,11.119375 15,12.5 C15,13.88125 13.880625,15 12.5,15 Z M16.50375,7.596875 C16.00625,7.596875 15.603125,8 15.603125,8.496875 C15.603125,8.99375 16.00625,9.396875 16.50375,9.396875 C17.000625,9.396875 17.403125,8.99375 17.403125,8.496875 C17.403125,8 17.000625,7.596875 16.50375,7.596875 Z" id="Ins" fill="#302D46" fill-rule="nonzero"></path>
    </g>
</svg>