<svg id="loading" xmlns="http://www.w3.org/2000/svg" xmlns:xlink="http://www.w3.org/1999/xlink" viewBox="0 0 100 100" shape-rendering="geometricPrecision" text-rendering="geometricPrecision"><g id="loading-loading"><g id="loading-group" transform="matrix(1 0 0 -1 3.71219 96)"><circle id="loading-oval" r="46" transform="matrix(1 0 0 1 46.2878 46)" fill="rgb(48,45,70)" fill-rule="evenodd" stroke="none" stroke-width="1"/><circle id="loading-oval2" r="42" transform="matrix(1 0 0 1 46.2878 45)" fill="rgb(255,255,255)" fill-rule="evenodd" stroke="none" stroke-width="1"/><g id="loading-loading2" transform="matrix(1 0 0 -1 19.2878 33)"><path id="loading-path1" d="M1.417443,11.206278C0.980525,11.206278,0.635055,11.075486,0.381033,10.813901C0.127011,10.552317,0,10.196562,0,9.746637L0,1.632287C0.11177,1.61136,0.289585,1.582586,0.533446,1.545964C0.777307,1.509342,1.011008,1.491031,1.234547,1.491031C1.468247,1.491031,1.674005,1.509342,1.85182,1.545964C2.029636,1.582586,2.179509,1.647982,2.301439,1.742152C2.42337,1.836323,2.514818,1.967115,2.575783,2.134529C2.636749,2.301943,2.667231,2.521674,2.667231,2.793722L2.667231,8.993274L6.157494,8.993274C6.22862,9.108371,6.294666,9.262706,6.355631,9.456278C6.416596,9.649851,6.447079,9.851271,6.447079,10.060538C6.447079,10.479073,6.360711,10.774664,6.187976,10.947309C6.015241,11.119955,5.786622,11.206278,5.502117,11.206278L1.417443,11.206278Z" fill="rgb(75,163,195)" stroke="none" stroke-width="1"/><path id="loading-shape" d="M15.287045,7.345291C15.287045,7.994021,15.190517,8.572123,14.99746,9.079596C14.804403,9.58707,14.5326,10.013453,14.182049,10.358744C13.831499,10.704036,13.412362,10.96562,12.92464,11.143498C12.436918,11.321375,11.893311,11.410314,11.293819,11.410314C10.694327,11.410314,10.15072,11.316144,9.662997,11.127803C9.175275,10.939462,8.756139,10.67003,8.405588,10.319507C8.055038,9.968984,7.783235,9.542601,7.590178,9.040359C7.397121,8.538117,7.300593,7.973094,7.300593,7.345291C7.300593,6.727952,7.397121,6.168161,7.590178,5.665919C7.783235,5.163677,8.055038,4.737294,8.405588,4.386771C8.756139,4.036248,9.175275,3.766816,9.662997,3.578475C10.15072,3.390135,10.694327,3.295964,11.293819,3.295964C11.893311,3.295964,12.436918,3.39275,12.92464,3.586323C13.412362,3.779895,13.831499,4.051943,14.182049,4.402466C14.5326,4.75299,14.804403,5.179372,14.99746,5.681614C15.190517,6.183857,15.287045,6.738416,15.287045,7.345291ZM9.952583,7.345291C9.952583,7.983558,10.071973,8.47272,10.310754,8.81278C10.549534,9.15284,10.882303,9.32287,11.30906,9.32287C11.735817,9.32287,12.063506,9.150224,12.292125,8.804933C12.520745,8.459641,12.635055,7.973094,12.635055,7.345291C12.635055,6.717489,12.518205,6.233558,12.284505,5.893498C12.050804,5.553438,11.720576,5.383408,11.293819,5.383408C10.867062,5.383408,10.536833,5.553438,10.303133,5.893498C10.069433,6.233558,9.952583,6.717489,9.952583,7.345291Z" fill="rgb(75,163,195)" stroke="none" stroke-width="1"/><path id="loading-shape2" d="M19.722269,9.464126C19.895004,9.464126,20.085521,9.445815,20.293819,9.409193C20.502117,9.372571,20.65707,9.32287,20.758679,9.26009L20.758679,8.004484L19.661304,8.098655C19.376799,8.119581,19.143099,8.182362,18.960203,8.286996C18.777307,8.391629,18.685859,8.54858,18.685859,8.757848C18.685859,8.967115,18.764606,9.137145,18.9221,9.267937C19.079594,9.398729,19.346317,9.464126,19.722269,9.464126ZM19.600339,3.295964C20.149026,3.295964,20.64945,3.353513,21.101609,3.46861C21.553768,3.583707,21.939882,3.758969,22.259949,3.994395C22.580017,4.229821,22.826418,4.528027,22.999153,4.889013C23.171888,5.25,23.258256,5.676383,23.258256,6.168161L23.258256,9.683857C23.258256,9.955904,23.184589,10.178251,23.037257,10.350897C22.889924,10.523543,22.714649,10.672646,22.511431,10.798206C21.850974,11.206278,20.921253,11.410314,19.722269,11.410314C19.183743,11.410314,18.698561,11.357997,18.266723,11.253363C17.834886,11.148729,17.464014,10.991779,17.154107,10.782511C16.8442,10.573244,16.605419,10.306428,16.437765,9.982063C16.27011,9.657698,16.186283,9.281016,16.186283,8.852018C16.186283,8.130045,16.394581,7.575486,16.811177,7.188341C17.227773,6.801196,17.872989,6.560538,18.746825,6.466368L20.743438,6.246637L20.743438,6.136771C20.743438,5.833333,20.613887,5.616218,20.354784,5.485426C20.095682,5.354634,19.722269,5.289238,19.234547,5.289238C18.848434,5.289238,18.472481,5.331091,18.106689,5.414798C17.740898,5.498505,17.410669,5.603139,17.116003,5.7287C16.983912,5.634529,16.872142,5.490658,16.780694,5.297085C16.689246,5.103513,16.643522,4.902093,16.643522,4.692825C16.643522,4.420777,16.707028,4.203662,16.834039,4.04148C16.96105,3.879297,17.156647,3.740658,17.42083,3.625561C17.715495,3.510463,18.063506,3.426756,18.46486,3.374439C18.866215,3.322123,19.244708,3.295964,19.600339,3.295964Z" fill="rgb(75,163,195)" stroke="none" stroke-width="1"/><path id="loading-shape3" d="M24.523285,7.345291C24.523285,6.654709,24.624894,6.05568,24.828112,5.548206C25.031329,5.040732,25.313294,4.619581,25.674005,4.284753C26.034716,3.949925,26.456393,3.70142,26.939035,3.539238C27.421677,3.377055,27.942422,3.295964,28.50127,3.295964C28.704488,3.295964,28.902625,3.314275,29.095682,3.350897C29.288738,3.387519,29.446232,3.431988,29.568163,3.484305L29.568163,0.941704C29.669771,0.910314,29.832346,0.876308,30.055885,0.839686C30.279424,0.803064,30.508044,0.784753,30.741744,0.784753C30.965284,0.784753,31.165961,0.800448,31.343777,0.831839C31.521592,0.863229,31.671465,0.926009,31.793395,1.020179C31.915326,1.11435,32.006774,1.242526,32.067739,1.404709C32.128704,1.566891,32.159187,1.778774,32.159187,2.040359L32.159187,9.479821C32.159187,9.971599,31.935648,10.363976,31.488569,10.656951C31.193904,10.855755,30.81287,11.031016,30.34547,11.182735C29.878069,11.334454,29.339543,11.410314,28.72989,11.410314C28.069433,11.410314,27.477561,11.316144,26.954276,11.127803C26.430991,10.939462,25.988992,10.667414,25.628281,10.311659C25.26757,9.955904,24.993226,9.529522,24.80525,9.032511C24.617274,8.535501,24.523285,7.973094,24.523285,7.345291ZM28.851821,5.383408C28.303133,5.383408,27.881456,5.54559,27.586791,5.869955C27.292125,6.19432,27.144793,6.686099,27.144793,7.345291C27.144793,7.994021,27.281964,8.483184,27.556308,8.81278C27.830652,9.142377,28.226926,9.307175,28.745131,9.307175C28.928027,9.307175,29.093141,9.278401,29.240474,9.220852C29.387807,9.163303,29.502117,9.097907,29.583404,9.024664L29.583404,5.571749C29.380186,5.446188,29.136325,5.383408,28.851821,5.383408Z" fill="rgb(75,163,195)" stroke="none" stroke-width="1"/><path id="loading-shape4" d="M33.713802,1.412556C33.713802,1.014948,33.843353,0.68012,34.102456,0.408072C34.361558,0.136024,34.704488,0,35.131245,0C35.558002,0,35.900931,0.136024,36.160034,0.408072C36.419136,0.68012,36.548688,1.014948,36.548688,1.412556C36.548688,1.810164,36.419136,2.144993,36.160034,2.41704C35.900931,2.689088,35.558002,2.825112,35.131245,2.825112C34.704488,2.825112,34.361558,2.689088,34.102456,2.41704C33.843353,2.144993,33.713802,1.810164,33.713802,1.412556ZM36.426757,11.143498C36.314987,11.164425,36.149873,11.193199,35.931414,11.229821C35.712955,11.266443,35.491956,11.284753,35.268417,11.284753C35.044877,11.284753,34.8442,11.269058,34.666384,11.237668C34.488569,11.206278,34.338696,11.143498,34.216766,11.049327C34.094835,10.955157,34.000847,10.826981,33.934801,10.664798C33.868755,10.502616,33.835732,10.290732,33.835732,10.029148L33.835732,3.641256C33.947502,3.620329,34.112616,3.591555,34.331075,3.554933C34.549534,3.518311,34.770533,3.5,34.994073,3.5C35.217612,3.5,35.41829,3.515695,35.596105,3.547085C35.77392,3.578475,35.923793,3.641256,36.045724,3.735426C36.167655,3.829596,36.261643,3.957773,36.327688,4.119955C36.393734,4.282138,36.426757,4.494021,36.426757,4.755605L36.426757,11.143498Z" fill="rgb(75,163,195)" stroke="none" stroke-width="1"/><path id="loading-path2" d="M42.767147,6.325112C42.767147,6.000747,42.678239,5.762706,42.500423,5.610987C42.322608,5.459268,42.081287,5.383408,41.776461,5.383408C41.573243,5.383408,41.372566,5.409567,41.174429,5.461883C40.976291,5.5142,40.806097,5.592676,40.663844,5.697309L40.663844,11.143498C40.562235,11.174888,40.402202,11.206278,40.183743,11.237668C39.965284,11.269058,39.739204,11.284753,39.505504,11.284753C39.281964,11.284753,39.081287,11.269058,38.903472,11.237668C38.725656,11.206278,38.575783,11.143498,38.453853,11.049327C38.331922,10.955157,38.237934,10.826981,38.171888,10.664798C38.105843,10.502616,38.07282,10.290732,38.07282,10.029148L38.07282,5.320628C38.07282,5.038117,38.131245,4.807922,38.248095,4.630045C38.364945,4.452167,38.524979,4.289985,38.728196,4.143498C39.073666,3.892377,39.508044,3.688341,40.031329,3.53139C40.554615,3.374439,41.136325,3.295964,41.776461,3.295964C42.92464,3.295964,43.808637,3.554933,44.428451,4.07287C45.048264,4.590807,45.358171,5.310164,45.358171,6.230942L45.358171,11.143498C45.256562,11.174888,45.096528,11.206278,44.878069,11.237668C44.659611,11.269058,44.433531,11.284753,44.199831,11.284753C43.976291,11.284753,43.775614,11.269058,43.597799,11.237668C43.419983,11.206278,43.27011,11.143498,43.14818,11.049327C43.026249,10.955157,42.932261,10.826981,42.866215,10.664798C42.800169,10.502616,42.767147,10.290732,42.767147,10.029148L42.767147,6.325112Z" fill="rgb(75,163,195)" stroke="none" stroke-width="1"/><path id="loading-shape5" d="M50.570703,3.295964C51.149873,3.295964,51.675699,3.371824,52.14818,3.523543C52.620661,3.675262,53.019475,3.87145,53.344623,4.112108C53.547841,4.258595,53.707875,4.420777,53.824725,4.598655C53.941575,4.776532,54,5.006726,54,5.289238L54,10.782511C54,11.33707,53.898391,11.81577,53.695174,12.21861C53.491956,12.62145,53.215072,12.956278,52.864522,13.223094C52.513971,13.48991,52.102456,13.686099,51.629975,13.811659C51.157494,13.93722,50.65199,14,50.113463,14C49.188823,14,48.46232,13.871824,47.933954,13.615471C47.405589,13.359118,47.141406,12.943199,47.141406,12.367713C47.141406,12.127055,47.18967,11.915172,47.286198,11.732063C47.382727,11.548954,47.491956,11.410314,47.613887,11.316144C47.908552,11.483558,48.241321,11.624813,48.612193,11.73991C48.983065,11.855008,49.366638,11.912556,49.762913,11.912556C50.3116,11.912556,50.748518,11.818386,51.073666,11.630045C51.398815,11.441704,51.561389,11.138266,51.561389,10.719731L51.561389,10.46861C51.144793,10.656951,50.636749,10.751121,50.037257,10.751121C49.580017,10.751121,49.145639,10.680493,48.734124,10.539238C48.322608,10.397982,47.961897,10.178251,47.65199,9.880045C47.342083,9.581839,47.093141,9.197309,46.905165,8.726457C46.717189,8.255605,46.623201,7.695815,46.623201,7.047085C46.623201,6.408819,46.722269,5.85426,46.920406,5.383408C47.118544,4.912556,47.392887,4.522795,47.743438,4.214126C48.093988,3.905456,48.510584,3.675262,48.993226,3.523543C49.475868,3.371824,50.001694,3.295964,50.570703,3.295964ZM51.515665,5.571749C51.444539,5.529895,51.34039,5.488042,51.203218,5.446188C51.066046,5.404335,50.895851,5.383408,50.692633,5.383408C50.19475,5.383408,49.821338,5.52728,49.572396,5.815022C49.323455,6.102765,49.198984,6.513453,49.198984,7.047085C49.198984,7.653961,49.323455,8.090807,49.572396,8.357623C49.821338,8.624439,50.138865,8.757848,50.524979,8.757848C50.941575,8.757848,51.271804,8.658445,51.515665,8.459641L51.515665,5.571749Z" fill="rgb(75,163,195)" stroke="none" stroke-width="1"/></g><path id="loading-shape6" d="M46.35801,76.768956C45.139845,75.79468,44.165313,74.414457,44.165313,73.60256C44.165313,71.248061,42.378672,70.273785,38.399333,70.273785L34.501206,70.273785L32.633353,64.022183C31.090345,58.988425,30.359446,57.608202,28.978859,57.445822C27.760694,57.283443,27.111006,57.85177,26.461319,59.637943C25.567998,62.236011,24.1062,62.885528,23.375301,61.099356C22.725613,59.394374,25.324365,54.279426,27.111006,53.792289C29.222492,53.223961,29.141281,52.412065,26.380108,44.130722C25.080732,40.233619,24.187411,36.904844,24.512255,36.661275C24.755888,36.417706,27.273428,36.174137,30.115813,36.174137L35.232105,36.174137L36.531481,39.421723L37.830856,42.669308L45.789533,42.669308L53.748209,42.669308L55.047585,39.421723L56.346961,36.174137L62.437785,36.174137C65.767435,36.174137,68.528608,36.336517,68.528608,36.580085C68.528608,36.823654,68.203765,37.635551,67.716499,38.447447C67.310444,39.178154,65.767435,43.562394,64.386848,48.109014L61.788097,56.390357L64.386848,59.394374C65.929857,61.099356,66.904389,62.966718,66.741967,64.022183C66.335912,66.620251,65.036536,66.457872,63.412316,63.697424C61.625675,60.531029,60.163877,61.424115,58.864501,66.620251L57.97118,70.273785L52.692467,70.273785C47.088909,70.273785,46.439221,70.760923,49.037972,73.115422C50.743403,74.658025,50.987036,77.662042,49.362816,78.14918C48.87555,78.311559,47.494964,77.662042,46.35801,76.768956ZM48.473224,64.290696C55.650802,60.548532,54.89966,50.236792,47.221321,48.074652C42.46409,46.744105,36.037654,51.317861,36.037654,56.057936C36.037654,59.301144,38.458,62.960149,41.295647,64.207537C44.717515,65.704403,45.635578,65.704403,48.473224,64.290696Z" fill="rgb(137,46,47)" stroke="none" stroke-width="1"/></g><path id="loading-path3" d="M49.821502,43.956635C49.178192,42.348359,50.143157,41.142153,51.91226,41.142153C53.922604,41.142153,54.726742,42.509187,53.520535,43.956635C52.233915,45.484496,50.384399,45.484496,49.821502,43.956635Z" transform="matrix(1 0 0 1 0 0.000005)" fill="rgb(137,46,47)" stroke="none" stroke-width="1"/><circle id="loading-oval3" r="6.38889" transform="matrix(1 0 0 1 83.6332 76.9199)" fill="rgb(137,46,47)" fill-rule="evenodd" stroke="none" stroke-width="1"/></g><script><![CDATA[!function(t,n){"object"==typeof exports&&"undefined"!=typeof module?module.exports=n():"function"==typeof define&&define.amd?define(n):((t="undefined"!=typeof globalThis?globalThis:t||self).__SVGATOR_PLAYER__=t.__SVGATOR_PLAYER__||{},t.__SVGATOR_PLAYER__["5c7f360c"]=n())}(this,(function(){"use strict";function t(t,n){var r=Object.keys(t);if(Object.getOwnPropertySymbols){var e=Object.getOwnPropertySymbols(t);n&&(e=e.filter((function(n){return Object.getOwnPropertyDescriptor(t,n).enumerable}))),r.push.apply(r,e)}return r}function n(n){for(var r=1;r<arguments.length;r++){var e=null!=arguments[r]?arguments[r]:{};r%2?t(Object(e),!0).forEach((function(t){u(n,t,e[t])})):Object.getOwnPropertyDescriptors?Object.defineProperties(n,Object.getOwnPropertyDescriptors(e)):t(Object(e)).forEach((function(t){Object.defineProperty(n,t,Object.getOwnPropertyDescriptor(e,t))}))}return n}function r(t){return(r="function"==typeof Symbol&&"symbol"==typeof Symbol.iterator?function(t){return typeof t}:function(t){return t&&"function"==typeof Symbol&&t.constructor===Symbol&&t!==Symbol.prototype?"symbol":typeof t})(t)}function e(t,n){if(!(t instanceof n))throw new TypeError("Cannot call a class as a function")}function i(t,n){for(var r=0;r<n.length;r++){var e=n[r];e.enumerable=e.enumerable||!1,e.configurable=!0,"value"in e&&(e.writable=!0),Object.defineProperty(t,e.key,e)}}function o(t,n,r){return n&&i(t.prototype,n),r&&i(t,r),t}function u(t,n,r){return n in t?Object.defineProperty(t,n,{value:r,enumerable:!0,configurable:!0,writable:!0}):t[n]=r,t}function a(t){return(a=Object.setPrototypeOf?Object.getPrototypeOf:function(t){return t.__proto__||Object.getPrototypeOf(t)})(t)}function l(t,n){return(l=Object.setPrototypeOf||function(t,n){return t.__proto__=n,t})(t,n)}function f(){if("undefined"==typeof Reflect||!Reflect.construct)return!1;if(Reflect.construct.sham)return!1;if("function"==typeof Proxy)return!0;try{return Boolean.prototype.valueOf.call(Reflect.construct(Boolean,[],(function(){}))),!0}catch(t){return!1}}function s(t,n,r){return(s=f()?Reflect.construct:function(t,n,r){var e=[null];e.push.apply(e,n);var i=new(Function.bind.apply(t,e));return r&&l(i,r.prototype),i}).apply(null,arguments)}function c(t,n){if(n&&("object"==typeof n||"function"==typeof n))return n;if(void 0!==n)throw new TypeError("Derived constructors may only return object or undefined");return function(t){if(void 0===t)throw new ReferenceError("this hasn't been initialised - super() hasn't been called");return t}(t)}function h(t,n,r){return(h="undefined"!=typeof Reflect&&Reflect.get?Reflect.get:function(t,n,r){var e=function(t,n){for(;!Object.prototype.hasOwnProperty.call(t,n)&&null!==(t=a(t)););return t}(t,n);if(e){var i=Object.getOwnPropertyDescriptor(e,n);return i.get?i.get.call(r):i.value}})(t,n,r||t)}function v(t){return function(t){if(Array.isArray(t))return y(t)}(t)||function(t){if("undefined"!=typeof Symbol&&null!=t[Symbol.iterator]||null!=t["@@iterator"])return Array.from(t)}(t)||function(t,n){if(!t)return;if("string"==typeof t)return y(t,n);var r=Object.prototype.toString.call(t).slice(8,-1);"Object"===r&&t.constructor&&(r=t.constructor.name);if("Map"===r||"Set"===r)return Array.from(t);if("Arguments"===r||/^(?:Ui|I)nt(?:8|16|32)(?:Clamped)?Array$/.test(r))return y(t,n)}(t)||function(){throw new TypeError("Invalid attempt to spread non-iterable instance.\nIn order to be iterable, non-array objects must have a [Symbol.iterator]() method.")}()}function y(t,n){(null==n||n>t.length)&&(n=t.length);for(var r=0,e=new Array(n);r<n;r++)e[r]=t[r];return e}var g=d(Math.pow(10,-6));function d(t){var n=arguments.length>1&&void 0!==arguments[1]?arguments[1]:6;if(Number.isInteger(t))return t;var r=Math.pow(10,n);return Math.round((+t+Number.EPSILON)*r)/r}function p(t,n){var r=arguments.length>2&&void 0!==arguments[2]?arguments[2]:g;return Math.abs(t-n)<r}var m=Math.PI/180;function b(t){return t}function w(t,n,r){var e=1-r;return 3*r*e*(t*e+n*r)+r*r*r}function x(){var t=arguments.length>0&&void 0!==arguments[0]?arguments[0]:0,n=arguments.length>1&&void 0!==arguments[1]?arguments[1]:0,r=arguments.length>2&&void 0!==arguments[2]?arguments[2]:1,e=arguments.length>3&&void 0!==arguments[3]?arguments[3]:1;return t<0||t>1||r<0||r>1?null:p(t,n)&&p(r,e)?b:function(i){if(i<=0)return t>0?i*n/t:0===n&&r>0?i*e/r:0;if(i>=1)return r<1?1+(i-1)*(e-1)/(r-1):1===r&&t<1?1+(i-1)*(n-1)/(t-1):1;for(var o,u=0,a=1;u<a;){var l=w(t,r,o=(u+a)/2);if(p(i,l))break;l<i?u=o:a=o}return w(n,e,o)}}function A(){return 1}function k(t){return 1===t?1:0}function S(){var t=arguments.length>0&&void 0!==arguments[0]?arguments[0]:1,n=arguments.length>1&&void 0!==arguments[1]?arguments[1]:0;if(1===t){if(0===n)return k;if(1===n)return A}var r=1/t;return function(t){return t>=1?1:(t+=n*r)-t%r}}var _=Math.sin,O=Math.cos,j=Math.acos,M=Math.asin,P=Math.tan,E=Math.atan2,I=Math.PI/180,R=180/Math.PI,F=Math.sqrt,N=function(){function t(){var n=arguments.length>0&&void 0!==arguments[0]?arguments[0]:1,r=arguments.length>1&&void 0!==arguments[1]?arguments[1]:0,i=arguments.length>2&&void 0!==arguments[2]?arguments[2]:0,o=arguments.length>3&&void 0!==arguments[3]?arguments[3]:1,u=arguments.length>4&&void 0!==arguments[4]?arguments[4]:0,a=arguments.length>5&&void 0!==arguments[5]?arguments[5]:0;e(this,t),this.m=[n,r,i,o,u,a],this.i=null,this.w=null,this.s=null}return o(t,[{key:"determinant",get:function(){var t=this.m;return t[0]*t[3]-t[1]*t[2]}},{key:"isIdentity",get:function(){if(null===this.i){var t=this.m;this.i=1===t[0]&&0===t[1]&&0===t[2]&&1===t[3]&&0===t[4]&&0===t[5]}return this.i}},{key:"point",value:function(t,n){var r=this.m;return{x:r[0]*t+r[2]*n+r[4],y:r[1]*t+r[3]*n+r[5]}}},{key:"translateSelf",value:function(){var t=arguments.length>0&&void 0!==arguments[0]?arguments[0]:0,n=arguments.length>1&&void 0!==arguments[1]?arguments[1]:0;if(!t&&!n)return this;var r=this.m;return r[4]+=r[0]*t+r[2]*n,r[5]+=r[1]*t+r[3]*n,this.w=this.s=this.i=null,this}},{key:"rotateSelf",value:function(){var t=arguments.length>0&&void 0!==arguments[0]?arguments[0]:0;if(t%=360){var n=_(t*=I),r=O(t),e=this.m,i=e[0],o=e[1];e[0]=i*r+e[2]*n,e[1]=o*r+e[3]*n,e[2]=e[2]*r-i*n,e[3]=e[3]*r-o*n,this.w=this.s=this.i=null}return this}},{key:"scaleSelf",value:function(){var t=arguments.length>0&&void 0!==arguments[0]?arguments[0]:1,n=arguments.length>1&&void 0!==arguments[1]?arguments[1]:1;if(1!==t||1!==n){var r=this.m;r[0]*=t,r[1]*=t,r[2]*=n,r[3]*=n,this.w=this.s=this.i=null}return this}},{key:"skewSelf",value:function(t,n){if(n%=360,(t%=360)||n){var r=this.m,e=r[0],i=r[1],o=r[2],u=r[3];t&&(t=P(t*I),r[2]+=e*t,r[3]+=i*t),n&&(n=P(n*I),r[0]+=o*n,r[1]+=u*n),this.w=this.s=this.i=null}return this}},{key:"resetSelf",value:function(){var t=arguments.length>0&&void 0!==arguments[0]?arguments[0]:1,n=arguments.length>1&&void 0!==arguments[1]?arguments[1]:0,r=arguments.length>2&&void 0!==arguments[2]?arguments[2]:0,e=arguments.length>3&&void 0!==arguments[3]?arguments[3]:1,i=arguments.length>4&&void 0!==arguments[4]?arguments[4]:0,o=arguments.length>5&&void 0!==arguments[5]?arguments[5]:0,u=this.m;return u[0]=t,u[1]=n,u[2]=r,u[3]=e,u[4]=i,u[5]=o,this.w=this.s=this.i=null,this}},{key:"recomposeSelf",value:function(){var t=arguments.length>0&&void 0!==arguments[0]?arguments[0]:null,n=arguments.length>1&&void 0!==arguments[1]?arguments[1]:null,r=arguments.length>2&&void 0!==arguments[2]?arguments[2]:null,e=arguments.length>3&&void 0!==arguments[3]?arguments[3]:null,i=arguments.length>4&&void 0!==arguments[4]?arguments[4]:null;return this.isIdentity||this.resetSelf(),t&&(t.x||t.y)&&this.translateSelf(t.x,t.y),n&&this.rotateSelf(n),r&&(r.x&&this.skewSelf(r.x,0),r.y&&this.skewSelf(0,r.y)),!e||1===e.x&&1===e.y||this.scaleSelf(e.x,e.y),i&&(i.x||i.y)&&this.translateSelf(i.x,i.y),this}},{key:"decompose",value:function(){var t=arguments.length>0&&void 0!==arguments[0]?arguments[0]:0,n=arguments.length>1&&void 0!==arguments[1]?arguments[1]:0,r=this.m,e=r[0]*r[0]+r[1]*r[1],i=[[r[0],r[1]],[r[2],r[3]]],o=F(e);if(0===o)return{origin:{x:d(r[4]),y:d(r[5])},translate:{x:d(t),y:d(n)},scale:{x:0,y:0},skew:{x:0,y:0},rotate:0};i[0][0]/=o,i[0][1]/=o;var u=r[0]*r[3]-r[1]*r[2]<0;u&&(o=-o);var a=i[0][0]*i[1][0]+i[0][1]*i[1][1];i[1][0]-=i[0][0]*a,i[1][1]-=i[0][1]*a;var l=F(i[1][0]*i[1][0]+i[1][1]*i[1][1]);if(0===l)return{origin:{x:d(r[4]),y:d(r[5])},translate:{x:d(t),y:d(n)},scale:{x:d(o),y:0},skew:{x:0,y:0},rotate:0};i[1][0]/=l,i[1][1]/=l,a/=l;var f=0;return i[1][1]<0?(f=j(i[1][1])*R,i[0][1]<0&&(f=360-f)):f=M(i[0][1])*R,u&&(f=-f),a=E(a,F(i[0][0]*i[0][0]+i[0][1]*i[0][1]))*R,u&&(a=-a),{origin:{x:d(r[4]),y:d(r[5])},translate:{x:d(t),y:d(n)},scale:{x:d(o),y:d(l)},skew:{x:d(a),y:0},rotate:d(f)}}},{key:"clone",value:function(){var t=this.m;return new this.constructor(t[0],t[1],t[2],t[3],t[4],t[5])}},{key:"toString",value:function(){var t=arguments.length>0&&void 0!==arguments[0]?arguments[0]:" ";return null===this.s&&(this.s="matrix("+this.m.map((function(t){return d(t)})).join(t)+")"),this.s}}],[{key:"create",value:function(t){return t?Array.isArray(t)?s(this,v(t)):t instanceof this?t.clone():(new this).recomposeSelf(t.origin,t.rotate,t.skew,t.scale,t.translate):new this}}]),t}();function T(t,n,r){return t>=.5?r:n}function B(t,n,r){return 0===t||n===r?n:t*(r-n)+n}function q(t,n,r){var e=B(t,n,r);return e<=0?0:e}function L(t,n,r){var e=B(t,n,r);return e<=0?0:e>=1?1:e}function C(t,n,r){return 0===t?n:1===t?r:{x:B(t,n.x,r.x),y:B(t,n.y,r.y)}}function D(t,n,r){var e=function(t,n,r){return Math.round(B(t,n,r))}(t,n,r);return e<=0?0:e>=255?255:e}function z(t,n,r){return 0===t?n:1===t?r:{r:D(t,n.r,r.r),g:D(t,n.g,r.g),b:D(t,n.b,r.b),a:B(t,null==n.a?1:n.a,null==r.a?1:r.a)}}function V(t,n){for(var r=[],e=0;e<t;e++)r.push(n);return r}function G(t,n){if(--n<=0)return t;var r=(t=Object.assign([],t)).length;do{for(var e=0;e<r;e++)t.push(t[e])}while(--n>0);return t}var Y,$=function(){function t(n){e(this,t),this.list=n,this.length=n.length}return o(t,[{key:"setAttribute",value:function(t,n){for(var r=this.list,e=0;e<this.length;e++)r[e].setAttribute(t,n)}},{key:"removeAttribute",value:function(t){for(var n=this.list,r=0;r<this.length;r++)n[r].removeAttribute(t)}},{key:"style",value:function(t,n){for(var r=this.list,e=0;e<this.length;e++)r[e].style[t]=n}}]),t}(),U=/-./g,Q=function(t,n){return n.toUpperCase()};function H(t){return"function"==typeof t?t:T}function J(t){return t?"function"==typeof t?t:Array.isArray(t)?function(t){var n=arguments.length>1&&void 0!==arguments[1]?arguments[1]:b;if(!Array.isArray(t))return n;switch(t.length){case 1:return S(t[0])||n;case 2:return S(t[0],t[1])||n;case 4:return x(t[0],t[1],t[2],t[3])||n}return n}(t,null):function(t,n){var r=arguments.length>2&&void 0!==arguments[2]?arguments[2]:b;switch(t){case"linear":return b;case"steps":return S(n.steps||1,n.jump||0)||r;case"bezier":case"cubic-bezier":return x(n.x1||0,n.y1||0,n.x2||0,n.y2||0)||r}return r}(t.type,t.value,null):null}function Z(t,n,r){var e=arguments.length>3&&void 0!==arguments[3]&&arguments[3],i=n.length-1;if(t<=n[0].t)return e?[0,0,n[0].v]:n[0].v;if(t>=n[i].t)return e?[i,1,n[i].v]:n[i].v;var o,u=n[0],a=null;for(o=1;o<=i;o++){if(!(t>n[o].t)){a=n[o];break}u=n[o]}return null==a?e?[i,1,n[i].v]:n[i].v:u.t===a.t?e?[o,1,a.v]:a.v:(t=(t-u.t)/(a.t-u.t),u.e&&(t=u.e(t)),e?[o,t,r(t,u.v,a.v)]:r(t,u.v,a.v))}function K(t,n){var r=arguments.length>2&&void 0!==arguments[2]?arguments[2]:null;return t&&t.length?"function"!=typeof n?null:("function"!=typeof r&&(r=null),function(e){var i=Z(e,t,n);return null!=i&&r&&(i=r(i)),i}):null}function W(t,n){return t.t-n.t}function X(t,n,e,i,o){var u,a="@"===e[0],l="#"===e[0],f=Y[e],s=T;switch(a?(u=e.substr(1),e=u.replace(U,Q)):l&&(e=e.substr(1)),r(f)){case"function":if(s=f(i,o,Z,J,e,a,n,t),l)return s;break;case"string":s=K(i,H(f));break;case"object":if((s=K(i,H(f.i),f.f))&&"function"==typeof f.u)return f.u(n,s,e,a,t)}return s?function(t,n,r){if(arguments.length>3&&void 0!==arguments[3]&&arguments[3])return t instanceof $?function(e){return t.style(n,r(e))}:function(e){return t.style[n]=r(e)};if(Array.isArray(n)){var e=n.length;return function(i){var o=r(i);if(null==o)for(var u=0;u<e;u++)t[u].removeAttribute(n);else for(var a=0;a<e;a++)t[a].setAttribute(n,o)}}return function(e){var i=r(e);null==i?t.removeAttribute(n):t.setAttribute(n,i)}}(n,e,s,a):null}function tt(t,n,e,i){if(!i||"object"!==r(i))return null;var o=null,u=null;return Array.isArray(i)?u=function(t){if(!t||!t.length)return null;for(var n=0;n<t.length;n++)t[n].e&&(t[n].e=J(t[n].e));return t.sort(W)}(i):(u=i.keys,o=i.data||null),u?X(t,n,e,u,o):null}function nt(t,n,r){if(!r)return null;var e=[];for(var i in r)if(r.hasOwnProperty(i)){var o=tt(t,n,i,r[i]);o&&e.push(o)}return e.length?e:null}function rt(t,n){if(!n.duration||n.duration<0)return null;var r=function(t,n){if(!n)return null;var r=[];if(Array.isArray(n))for(var e=n.length,i=0;i<e;i++){var o=n[i];if(2===o.length){var u=null;if("string"==typeof o[0])u=t.getElementById(o[0]);else if(Array.isArray(o[0])){u=[];for(var a=0;a<o[0].length;a++)if("string"==typeof o[0][a]){var l=t.getElementById(o[0][a]);l&&u.push(l)}u=u.length?1===u.length?u[0]:new $(u):null}if(u){var f=nt(t,u,o[1]);f&&(r=r.concat(f))}}}else for(var s in n)if(n.hasOwnProperty(s)){var c=t.getElementById(s);if(c){var h=nt(t,c,n[s]);h&&(r=r.concat(h))}}return r.length?r:null}(t,n.elements);return r?function(t,n){var r=arguments.length>2&&void 0!==arguments[2]?arguments[2]:1/0,e=arguments.length>3&&void 0!==arguments[3]?arguments[3]:1,i=arguments.length>4&&void 0!==arguments[4]&&arguments[4],o=arguments.length>5&&void 0!==arguments[5]?arguments[5]:1,u=t.length,a=e>0?n:0;i&&r%2==0&&(a=n-a);var l=null;return function(f,s){var c=f%n,h=1+(f-c)/n;s*=e,i&&h%2==0&&(s=-s);var v=!1;if(h>r)c=a,v=!0,-1===o&&(c=e>0?0:n);else if(s<0&&(c=n-c),c===l)return!1;l=c;for(var y=0;y<u;y++)t[y](c);return v}}(r,n.duration,n.iterations||1/0,n.direction||1,!!n.alternate,n.fill||1):null}function et(t){return+("0x"+(t.replace(/[^0-9a-fA-F]+/g,"")||27))}function it(t,n,r){return!t||!r||n>t.length?t:t.substring(0,n)+it(t.substring(n+1),r,r)}function ot(t){var n=arguments.length>1&&void 0!==arguments[1]?arguments[1]:27;return!t||t%n?t%n:ot(t/n,n)}function ut(t,n,r){if(t&&t.length){var e=et(r),i=et(n),o=ot(e)+5,u=it(t,ot(e,5),o);return u=u.replace(/\x7c$/g,"==").replace(/\x2f$/g,"="),u=function(t,n,r){var e=+("0x"+t.substring(0,4));t=t.substring(4);for(var i=n%e+r%27,o=[],u=0;u<t.length;u+=2)if("|"!==t[u]){var a=+("0x"+t[u]+t[u+1])-i;o.push(a)}else{var l=+("0x"+t.substring(u+1,u+1+4))-i;u+=3,o.push(l)}return String.fromCharCode.apply(String,o)}(u=(u=atob(u)).replace(/[\x41-\x5A]/g,""),i,e),u=JSON.parse(u)}}Number.isInteger||(Number.isInteger=function(t){return"number"==typeof t&&isFinite(t)&&Math.floor(t)===t}),Number.EPSILON||(Number.EPSILON=2220446049250313e-31);var at=function(){function t(n,r){var i=arguments.length>2&&void 0!==arguments[2]?arguments[2]:{};e(this,t),this._id=0,this._running=!1,this._rollingBack=!1,this._animations=n,this.duration=r.duration,this.alternate=r.alternate,this.fill=r.fill,this.iterations=r.iterations,this.direction=i.direction||1,this.speed=i.speed||1,this.fps=i.fps||100,this.offset=i.offset||0,this.rollbackStartOffset=0}return o(t,[{key:"_rollback",value:function(){var t=this,n=1/0,r=null;this.rollbackStartOffset=this.offset,this._rollingBack||(this._rollingBack=!0,this._running=!0);this._id=window.requestAnimationFrame((function e(i){if(t._rollingBack){null==r&&(r=i);var o=i-r,u=t.rollbackStartOffset-o,a=Math.round(u*t.speed);if(a>t.duration&&n!=1/0){var l=!!t.alternate&&a/t.duration%2>1,f=a%t.duration;a=(f+=l?t.duration:0)||t.duration}var s=t.fps?1e3/t.fps:0,c=Math.max(0,a);if(c<n-s){t.offset=c,n=c;for(var h=t._animations,v=h.length,y=0;y<v;y++)h[y](c,t.direction)}var g=!1;if(t.iterations>0&&-1===t.fill){var d=t.iterations*t.duration,p=d==a;a=p?0:a,t.offset=p?0:t.offset,g=a>d}a>0&&t.offset>=a&&!g?t._id=window.requestAnimationFrame(e):t.stop()}}))}},{key:"_start",value:function(){var t=this,n=arguments.length>0&&void 0!==arguments[0]?arguments[0]:0,r=-1/0,e=null,i={},o=function o(u){t._running=!0,null==e&&(e=u);var a=Math.round((u-e+n)*t.speed),l=t.fps?1e3/t.fps:0;if(a>r+l&&!t._rollingBack){t.offset=a,r=a;for(var f=t._animations,s=f.length,c=0,h=0;h<s;h++)i[h]?c++:(i[h]=f[h](a,t.direction),i[h]&&c++);if(c===s)return void t._stop()}t._id=window.requestAnimationFrame(o)};this._id=window.requestAnimationFrame(o)}},{key:"_stop",value:function(){this._id&&window.cancelAnimationFrame(this._id),this._running=!1,this._rollingBack=!1}},{key:"play",value:function(){!this._rollingBack&&this._running||(this._rollingBack=!1,this.rollbackStartOffset>this.duration&&(this.offset=this.rollbackStartOffset-(this.rollbackStartOffset-this.offset)%this.duration,this.rollbackStartOffset=0),this._start(this.offset))}},{key:"stop",value:function(){this._stop(),this.offset=0,this.rollbackStartOffset=0;var t=this.direction,n=this._animations;window.requestAnimationFrame((function(){for(var r=0;r<n.length;r++)n[r](0,t)}))}},{key:"reachedToEnd",value:function(){return this.iterations>0&&this.offset>=this.iterations*this.duration}},{key:"restart",value:function(){this._stop(),this.offset=0,this._start()}},{key:"pause",value:function(){this._stop()}},{key:"reverse",value:function(){this.direction=-this.direction}}],[{key:"build",value:function(r,e){return delete r.animationSettings,r.options=ut(r.options,r.root,"5c7f360c"),r.animations.map((function(t){var e=ut(t.s,r.root,"5c7f360c");for(var i in delete t.s,r.animationSettings||(r.animationSettings=n({},e)),e)e.hasOwnProperty(i)&&(t[i]=e[i])})),(r=function(t,n){if(Y=n,!t||!t.root||!Array.isArray(t.animations))return null;for(var r=document.getElementsByTagName("svg"),e=!1,i=0;i<r.length;i++)if(r[i].id===t.root&&!r[i].svgatorAnimation){(e=r[i]).svgatorAnimation=!0;break}if(!e)return null;var o=t.animations.map((function(t){return rt(e,t)})).filter((function(t){return!!t}));return o.length?{element:e,animations:o,animationSettings:t.animationSettings,options:t.options||void 0}:null}(r,e))?{el:r.element,options:r.options||{},player:new t(r.animations,r.animationSettings,r.options)}:null}},{key:"push",value:function(t){return this.build(t)}},{key:"init",value:function(){var t=this,n=window.__SVGATOR_PLAYER__&&window.__SVGATOR_PLAYER__["5c7f360c"];Array.isArray(n)&&n.splice(0).forEach((function(n){return t.build(n)}))}}]),t}();function lt(t){return d(t)+""}function ft(t){var n=arguments.length>1&&void 0!==arguments[1]?arguments[1]:" ";return t&&t.length?t.map(lt).join(n):""}function st(t){return t?null==t.a||t.a>=1?"rgb("+t.r+","+t.g+","+t.b+")":"rgba("+t.r+","+t.g+","+t.b+","+t.a+")":"transparent"}function ct(t){return t?"url(#"+t+")":"none"}!function(){for(var t=0,n=["ms","moz","webkit","o"],r=0;r<n.length&&!window.requestAnimationFrame;++r)window.requestAnimationFrame=window[n[r]+"RequestAnimationFrame"],window.cancelAnimationFrame=window[n[r]+"CancelAnimationFrame"]||window[n[r]+"CancelRequestAnimationFrame"];window.requestAnimationFrame||(window.requestAnimationFrame=function(n){var r=Date.now(),e=Math.max(0,16-(r-t)),i=window.setTimeout((function(){n(r+e)}),e);return t=r+e,i},window.cancelAnimationFrame=window.clearTimeout)}();var ht={f:null,i:function(t,n,r){return 0===t?n:1===t?r:{x:q(t,n.x,r.x),y:q(t,n.y,r.y)}},u:function(t,n){return function(r){var e=n(r);t.setAttribute("rx",lt(e.x)),t.setAttribute("ry",lt(e.y))}}},vt={f:null,i:function(t,n,r){return 0===t?n:1===t?r:{width:q(t,n.width,r.width),height:q(t,n.height,r.height)}},u:function(t,n){return function(r){var e=n(r);t.setAttribute("width",lt(e.width)),t.setAttribute("height",lt(e.height))}}};Object.freeze({M:2,L:2,Z:0,H:1,V:1,C:6,Q:4,T:2,S:4,A:7});var yt={},gt=null;function dt(t){var n=function(){if(gt)return gt;if("object"!==("undefined"==typeof document?"undefined":r(document))||!document.createElementNS)return{};var t=document.createElementNS("http://www.w3.org/2000/svg","svg");return t&&t.style?(t.style.position="absolute",t.style.opacity="0.01",t.style.zIndex="-9999",t.style.left="-9999px",t.style.width="1px",t.style.height="1px",gt={svg:t}):{}}().svg;if(!n)return function(t){return null};var e=document.createElementNS(n.namespaceURI,"path");e.setAttributeNS(null,"d",t),e.setAttributeNS(null,"fill","none"),e.setAttributeNS(null,"stroke","none"),n.appendChild(e);var i=e.getTotalLength();return function(t){var n=e.getPointAtLength(i*t);return{x:n.x,y:n.y}}}function pt(t){return yt[t]?yt[t]:yt[t]=dt(t)}function mt(t,n,r,e){if(!t||!e)return!1;var i=["M",t.x,t.y];if(n&&r&&(i.push("C"),i.push(n.x),i.push(n.y),i.push(r.x),i.push(r.y)),n?!r:r){var o=n||r;i.push("Q"),i.push(o.x),i.push(o.y)}return n||r||i.push("L"),i.push(e.x),i.push(e.y),i.join(" ")}function bt(t,n,r,e){var i=arguments.length>4&&void 0!==arguments[4]?arguments[4]:1,o=mt(t,n,r,e),u=pt(o);try{return u(i)}catch(t){return null}}function wt(t,n,r,e){var i=1-e;return i*i*t+2*i*e*n+e*e*r}function xt(t,n,r,e){return 2*(1-e)*(n-t)+2*e*(r-n)}function At(t,n,r,e){var i=arguments.length>4&&void 0!==arguments[4]&&arguments[4],o=bt(t,n,null,r,e);return o||(o={x:wt(t.x,n.x,r.x,e),y:wt(t.y,n.y,r.y,e)}),i&&(o.a=kt(t,n,r,e)),o}function kt(t,n,r,e){return Math.atan2(xt(t.y,n.y,r.y,e),xt(t.x,n.x,r.x,e))}function St(t,n,r,e,i){var o=i*i;return i*o*(e-t+3*(n-r))+3*o*(t+r-2*n)+3*i*(n-t)+t}function _t(t,n,r,e,i){var o=1-i;return 3*(o*o*(n-t)+2*o*i*(r-n)+i*i*(e-r))}function Ot(t,n,r,e,i){var o=arguments.length>5&&void 0!==arguments[5]&&arguments[5],u=bt(t,n,r,e,i);return u||(u={x:St(t.x,n.x,r.x,e.x,i),y:St(t.y,n.y,r.y,e.y,i)}),o&&(u.a=jt(t,n,r,e,i)),u}function jt(t,n,r,e,i){return Math.atan2(_t(t.y,n.y,r.y,e.y,i),_t(t.x,n.x,r.x,e.x,i))}function Mt(t,n,r){return t+(n-t)*r}function Pt(t,n,r){var e=arguments.length>3&&void 0!==arguments[3]&&arguments[3],i={x:Mt(t.x,n.x,r),y:Mt(t.y,n.y,r)};return e&&(i.a=Et(t,n)),i}function Et(t,n){return Math.atan2(n.y-t.y,n.x-t.x)}function It(t,n,r){var e=arguments.length>3&&void 0!==arguments[3]&&arguments[3];if(Ft(n)){if(Nt(r))return At(n,r.start,r,t,e)}else if(Ft(r)){if(n.end)return At(n,n.end,r,t,e)}else{if(n.end)return r.start?Ot(n,n.end,r.start,r,t,e):At(n,n.end,r,t,e);if(r.start)return At(n,r.start,r,t,e)}return Pt(n,r,t,e)}function Rt(t,n,r){var e=It(t,n,r,!0);return e.a=function(t){return arguments.length>1&&void 0!==arguments[1]&&arguments[1]?t+Math.PI:t}(e.a)/m,e}function Ft(t){return!t.type||"corner"===t.type}function Nt(t){return null!=t.start&&!Ft(t)}var Tt=new N;var Bt={f:lt,i:B},qt={f:lt,i:L};function Lt(t,n,r){return t.map((function(t){return function(t,n,r){var e=t.v;if(!e||"g"!==e.t||e.s||!e.v||!e.r)return t;var i=r.getElementById(e.r),o=i&&i.querySelectorAll("stop")||[];return e.s=e.v.map((function(t,n){var r=o[n]&&o[n].getAttribute("offset");return{c:t,o:r=d(parseInt(r)/100)}})),delete e.v,t}(t,0,r)}))}var Ct={gt:"gradientTransform",c:{x:"cx",y:"cy"},rd:"r",f:{x:"x1",y:"y1"},to:{x:"x2",y:"y2"}};function Dt(t,n,e,i,o,u,a,l){return Lt(t,0,l),n=function(t,n,r){for(var e,i,o,u=t.length-1,a={},l=0;l<=u;l++)(e=t[l]).e&&(e.e=n(e.e)),e.v&&"g"===(i=e.v).t&&i.r&&(o=r.getElementById(i.r))&&(a[i.r]={e:o,s:o.querySelectorAll("stop")});return a}(t,i,l),function(i){var o=e(i,t,zt);if(!o)return"none";if("c"===o.t)return st(o.v);if("g"===o.t){if(!n[o.r])return ct(o.r);var u=n[o.r];return function(t,n){for(var r=t.s,e=r.length;e<n.length;e++){var i=r[r.length-1].cloneNode();i.id=Yt(i.id),t.e.appendChild(i),r=t.s=t.e.querySelectorAll("stop")}for(var o=0,u=r.length,a=n.length-1;o<u;o++)r[o].setAttribute("stop-color",st(n[Math.min(o,a)].c)),r[o].setAttribute("offset",n[Math.min(o,a)].o)}(u,o.s),Object.keys(Ct).forEach((function(t){if(void 0!==o[t])if("object"!==r(Ct[t])){var n,e="gt"===t?(n=o[t],Array.isArray(n)?"matrix("+n.join(" ")+")":""):o[t],i=Ct[t];u.e.setAttribute(i,e)}else Object.keys(Ct[t]).forEach((function(n){if(void 0!==o[t][n]){var r=o[t][n],e=Ct[t][n];u.e.setAttribute(e,r)}}))})),ct(o.r)}return"none"}}function zt(t,r,e){if(0===t)return r;if(1===t)return e;if(r&&e){var i=r.t;if(i===e.t)switch(r.t){case"c":return{t:i,v:z(t,r.v,e.v)};case"g":if(r.r===e.r){var o={t:i,s:Vt(t,r.s,e.s),r:r.r};return r.gt&&e.gt&&(o.gt=function(t,n,r){var e=n.length;if(e!==r.length)return T(t,n,r);for(var i=new Array(e),o=0;o<e;o++)i[o]=B(t,n[o],r[o]);return i}(t,r.gt,e.gt)),r.c?(o.c=C(t,r.c,e.c),o.rd=q(t,r.rd,e.rd)):r.f&&(o.f=C(t,r.f,e.f),o.to=C(t,r.to,e.to)),o}}if("c"===r.t&&"g"===e.t||"c"===e.t&&"g"===r.t){var u="c"===r.t?r:e,a="g"===r.t?n({},r):n({},e),l=a.s.map((function(t){return{c:u.v,o:t.o}}));return a.s="c"===r.t?Vt(t,l,a.s):Vt(t,a.s,l),a}}return T(t,r,e)}function Vt(t,n,r){if(n.length===r.length)return n.map((function(n,e){return Gt(t,n,r[e])}));for(var e=Math.max(n.length,r.length),i=[],o=0;o<e;o++){var u=Gt(t,n[Math.min(o,n.length-1)],r[Math.min(o,r.length-1)]);i.push(u)}return i}function Gt(t,n,r){return{o:L(t,n.o,r.o||0),c:z(t,n.c,r.c||{})}}function Yt(t){return t.replace(/-fill-([0-9]+)$/,(function(t,n){return"-fill-"+(+n+1)}))}var $t={fill:Dt,"fill-opacity":qt,stroke:Dt,"stroke-opacity":qt,"stroke-width":Bt,"stroke-dashoffset":{f:lt,i:B},"stroke-dasharray":{f:function(t){var n=arguments.length>1&&void 0!==arguments[1]?arguments[1]:" ";return t&&t.length>0&&(t=t.map((function(t){return d(t,4)}))),ft(t,n)},i:function(t,n,r){var e,i,o,u=n.length,a=r.length;if(u!==a)if(0===u)n=V(u=a,0);else if(0===a)a=u,r=V(u,0);else{var l=(o=(e=u)*(i=a)/function(t,n){for(var r;n;)r=n,n=t%n,t=r;return t||1}(e,i))<0?-o:o;n=G(n,Math.floor(l/u)),r=G(r,Math.floor(l/a)),u=a=l}for(var f=[],s=0;s<u;s++)f.push(d(q(t,n[s],r[s])));return f}},opacity:qt,transform:function(t,n,e,i){if(!(t=function(t,n){if(!t||"object"!==r(t))return null;var e=!1;for(var i in t)t.hasOwnProperty(i)&&(t[i]&&t[i].length?(t[i].forEach((function(t){t.e&&(t.e=n(t.e))})),e=!0):delete t[i]);return e?t:null}(t,i)))return null;var o=function(r,i,o){var u=arguments.length>3&&void 0!==arguments[3]?arguments[3]:null;return t[r]?e(i,t[r],o):n&&n[r]?n[r]:u};return n&&n.a&&t.o?function(n){var r=e(n,t.o,Rt);return Tt.recomposeSelf(r,o("r",n,B,0)+r.a,o("k",n,C),o("s",n,C),o("t",n,C)).toString()}:function(t){return Tt.recomposeSelf(o("o",t,It,null),o("r",t,B,0),o("k",t,C),o("s",t,C),o("t",t,C)).toString()}},r:Bt,"#size":vt,"#radius":ht,_:function(t,n){if(Array.isArray(t))for(var r=0;r<t.length;r++)this[t[r]]=n;else this[t]=n}},Ut=function(t){!function(t,n){if("function"!=typeof n&&null!==n)throw new TypeError("Super expression must either be null or a function");t.prototype=Object.create(n&&n.prototype,{constructor:{value:t,writable:!0,configurable:!0}}),n&&l(t,n)}(u,t);var n,r,i=(n=u,r=f(),function(){var t,e=a(n);if(r){var i=a(this).constructor;t=Reflect.construct(e,arguments,i)}else t=e.apply(this,arguments);return c(this,t)});function u(){return e(this,u),i.apply(this,arguments)}return o(u,null,[{key:"build",value:function(t){var n=h(a(u),"build",this).call(this,t,$t);if(!n)return null;n.el,n.options,function(t,n,r){t.play()}(n.player)}}]),u}(at);return Ut.init(),Ut}));
(function(s,i,o,w){w[o]=w[o]||{};w[o][s]=w[o][s]||[];w[o][s].push(i);})('5c7f360c',{"root":"loading","animations":[{"elements":{"loading-path3":{"transform":{"data":{"o":{"x":49.618372,"y":38.832587,"type":"corner"},"t":{"x":-49.618372,"y":-38.832582}},"keys":{"r":[{"t":0,"v":0},{"t":700,"v":58.742949},{"t":1500,"v":131.628206},{"t":2200,"v":235.84576},{"t":3000,"v":360}]}}},"loading-oval3":{"transform":{"data":{"o":{"x":50,"y":51,"type":"corner"},"t":{"x":33.6332,"y":25.9199}},"keys":{"r":[{"t":0,"v":0},{"t":700,"v":90},{"t":1500,"v":180},{"t":2200,"v":270},{"t":3000,"v":360}]}}}},"s":"MCDA1MzhlMzU3Nzg4TjJg1NzQ4NzdjODJWODEXzNTRkNDY0MzQzNDMzMZjM1Nzc3Yzg1Nzg3NCjg3N2M4MjgxMzU0ZDSQ0M2YzNTdjODc3ODgC1NzQ4NzdjODI4MTg2XMzU0ZDQzM2ZGMzU3OQTdjN2Y3ZjM1NGQ0NEKczZjM1NzQ3ZlI4NzcA4ODU4MVE3NDg3NzgzYNVY0ZDc5NzQ3Zjg2NMzgzZjM1ODY4Mzc4NzLg3NzM1NGQ0NDkw"}],"options":"MCDAxMDk0M2I4YzhkN2YE4YjhkM2I1MzNiODUO4ODdhN2QzYko5Nkw/V"},'__SVGATOR_PLAYER__',window)]]></script></svg>