<?xml version="1.0" encoding="UTF-8"?>
<svg width="32px" height="32px" viewBox="0 0 32 32" version="1.1" xmlns="http://www.w3.org/2000/svg" xmlns:xlink="http://www.w3.org/1999/xlink" style="background: #892E2F;">
    <title>LOGO-Mobile</title>
    <g id="LOGO-Mobile" stroke="none" stroke-width="1" fill="none" fill-rule="evenodd">
        <rect fill="#892E2F" x="0" y="0" width="32" height="32"></rect>
        <circle id="Oval" fill="#FFFFFF" cx="16" cy="16" r="16"></circle>
        <g id="Group" transform="translate(3.000000, 1.000000)">
            <path d="M18.8762409,24.375 C18.5148908,23.3140069 18.0502979,21.9792092 17.4480477,20.3706068 L8.46591663,20.3706068 L7.05493051,24.375 L0,24.375 L3.16611515,14.2784531 C2.47617435,14.3993264 1.7666355,14.2321992 1.20450033,13.8164078 C0.470024023,12.7835112 0.0625734083,11.5559441 0.0344142952,10.2911728 C0.0344142952,10.2911728 -0.0860357379,9.04193899 0.739907346,8.88792385 C1.56585043,8.73390879 1.90999339,9.82912742 1.90999339,9.82912742 C1.90999339,9.82912742 1.90999339,11.6601961 2.61548644,11.9340007 C3.10259919,12.0125778 3.60146174,11.9023274 4.00926539,11.6259705 L6.38385175,4.06211674 L11.5459961,4.06211674 C11.5025086,2.86322567 11.8729119,1.68564243 12.595632,0.725122444 C13.4559894,-0.198968285 16.1747187,0.0234980015 16.1747187,0.0234980015 C16.1747187,0.0234980015 15.9854401,2.59041669 14.4540039,3.30915392 C13.8345466,3.60007138 13.3527466,3.85676325 12.9741893,4.07922954 L19.8570483,4.07922954 L21.5777631,9.55532272 C22.4191697,9.23492253 23.0577215,8.53636737 23.2984778,7.6729157 C23.2984778,7.6729157 23.5909993,6.28677961 24.4857711,6.5092459 C25.7590999,6.80016335 25.1912641,8.61411923 25.1912641,8.61411923 C24.9791014,9.4749291 24.5731264,10.2765752 24.0039709,10.9585716 C23.4975784,11.483099 22.9180968,11.9326161 22.2832561,12.2933693 L26,24.2723232 L18.8762409,24.375 Z" id="Shape-path" fill="#892E2F"></path>
            <path d="M12.5432888,7.49998774 C10.6615043,7.49320647 8.96120436,8.62149966 8.23633013,10.3580817 C7.51145594,12.0946637 7.90500345,14.0969588 9.23320889,15.4300117 C10.5614143,16.7630646 12.5622625,17.1639037 14.3014736,16.4453607 C16.0406848,15.7268176 17.1751771,14.0306393 17.1751771,12.1488424 C17.1751771,9.58797214 15.1041421,7.50936162 12.5432888,7.49998774 Z" id="Shape-path" fill="#FFFFFF"></path>
            <path d="M14.0478072,13.5350279 C13.2168846,13.5350279 12.5432888,12.861432 12.5432888,12.0305095 L12.5432888,12.0305095 C12.5432888,11.1995869 13.2168846,10.525991 14.0478072,10.525991 L14.0478072,10.525991 C14.8787299,10.525991 15.5523257,11.1995869 15.5523257,12.0305095 L15.5523257,12.0305095 C15.5523257,12.861432 14.8787299,13.5350279 14.0478072,13.5350279 L14.0478072,13.5350279 Z" id="Shape-path" fill="#892E2F"></path>
        </g>
    </g>
</svg>