<?xml version="1.0" encoding="UTF-8"?>
<svg width="40px" height="80px" viewBox="0 0 40 80" version="1.1" xmlns="http://www.w3.org/2000/svg" xmlns:xlink="http://www.w3.org/1999/xlink">
    <title>Icon-Phone Case-40*80</title>
    <g id="Icon-Phone-Case-40*80" stroke="none" stroke-width="1" fill="none" fill-rule="evenodd">
        <path d="M6,80 L0,80 L0,74 C4.05812251e-16,77.3137085 2.6862915,80 6,80 Z M40,0 L40,80 L33.9881877,80 C37.3018962,80 39.9881877,77.3137085 39.9881877,74 L39.9881761,73.9881993 L39.9881761,73.9881993 L39.8544348,5.98819932 C39.8479266,2.67910474 37.1635474,-5.04876409e-15 33.8544464,0 L40,0 Z M0,0 L6,0 C2.6862915,6.08718376e-16 -4.05812251e-16,2.6862915 0,6 L0,0 Z" id="Combined-Shape" fill="#FFFFFF"></path>
        <g id="Frame">
            <path d="M33.8544464,1 C35.2332385,1 36.4818802,1.55814682 37.3865018,2.46099099 C38.2911234,3.36383517 38.851725,4.61137669 38.8544368,5.9901661 L38.8544368,5.9901661 L38.9881761,73.9882063 C38.9881858,75.3792955 38.4290438,76.6302117 37.5237216,77.5355339 C36.6188996,78.4403559 35.3688996,79 33.9881877,79 L33.9881877,79 L6,79 C4.61928813,79 3.36928813,78.4403559 2.46446609,77.5355339 C1.55964406,76.6307119 1,75.3807119 1,74 L1,74 L1,6 C1,4.61928813 1.55964406,3.36928813 2.46446609,2.46446609 C3.36928813,1.55964406 4.61928813,1 6,1 L6,1 Z" id="Path-4" stroke="#979797" stroke-width="2"></path>
            <g id="Group" transform="translate(4.000000, 4.000000)" fill="#D8D8D8">
                <rect id="Rectangle" x="0" y="0" width="12" height="12" rx="4"></rect>
                <circle id="Oval" stroke="#979797" cx="3.5" cy="3.5" r="1"></circle>
                <circle id="Oval" stroke="#979797" cx="8.5" cy="5.5" r="1"></circle>
                <circle id="Oval" stroke="#979797" cx="3.5" cy="8.5" r="1"></circle>
            </g>
        </g>
    </g>
</svg>