<?xml version="1.0" encoding="UTF-8"?>
<svg width="70px" height="80px" viewBox="0 0 70 80" version="1.1" xmlns="http://www.w3.org/2000/svg" xmlns:xlink="http://www.w3.org/1999/xlink">
    <title>Icon-Wall Scroll-48*72</title>
    <g id="Icon-Wall-Scroll-48*72" stroke="none" stroke-width="1" fill="none" fill-rule="evenodd">
        <path d="M70,0 L70,80 L0,80 L0,0 L70,0 Z M59,6 L11,6 L11,78 L59,78 L59,6 Z" id="Combined-Shape" fill="#FFFFFF"></path>
        <g id="Frame" transform="translate(0.000000, 0.625000)">
            <polygon id="Path-4" stroke="#979797" stroke-width="2" points="11 5 11 77 59 77 58.8111888 5"></polygon>
            <path d="M3.04347826,5.41625505 L65.942029,5.41625505 C66.3646688,6.18324168 67.0409973,6.51913346 67.9710145,6.4239304 C69.3660403,6.28112582 70,5.41625505 70,4.40857969 C70,3.40090433 68.6496202,2.56174033 67.9710145,2.39322897 C67.5186107,2.28088807 66.8422822,2.61677985 65.942029,3.40090433 L3.04347826,3.40090433 C3.04347826,2.72912076 2.70531401,2.39322897 2.02898551,2.39322897 C1.01449275,2.39322897 0,3.40090433 0,4.40857969 C0,5.41625505 1.01449275,6.4239304 2.02898551,6.4239304 C2.70531401,6.4239304 3.04347826,6.08803862 3.04347826,5.41625505 Z" id="Line" fill="#A6A6A6"></path>
            <path d="M3.04347826,78.9765561 L65.942029,78.9765561 C66.3646688,79.7435428 67.0409973,80.0794346 67.9710145,79.9842315 C69.3660403,79.8414269 70,78.9765561 70,77.9688808 C70,76.9612054 68.6496202,76.1220414 67.9710145,75.9535301 C67.5186107,75.8411892 66.8422822,76.177081 65.942029,76.9612054 L3.04347826,76.9612054 C3.04347826,76.2894219 2.70531401,75.9535301 2.02898551,75.9535301 C1.01449275,75.9535301 0,76.9612054 0,77.9688808 C0,78.9765561 1.01449275,79.9842315 2.02898551,79.9842315 C2.70531401,79.9842315 3.04347826,79.6483397 3.04347826,78.9765561 Z" id="Line" fill="#A6A6A6" transform="translate(35.000000, 77.966207) scale(-1, 1) translate(-35.000000, -77.966207) "></path>
            <path d="M13.1884058,0.377878259 C14.7101449,-0.12595942 15.7246377,-0.12595942 16.2318841,0.377878259 C16.7391304,0.881715938 16.7391304,1.8893913 16.2318841,3.40090433" id="Path-10" stroke="#979797" stroke-width="2"></path>
            <path d="M40.5797101,0.377878259 C42.1014493,-0.12595942 43.115942,-0.12595942 43.6231884,0.377878259 C44.1304348,0.881715938 44.1304348,1.8893913 43.6231884,3.40090433" id="Path-10" stroke="#979797" stroke-width="2"></path>
        </g>
    </g>
</svg>