<?xml version="1.0" encoding="UTF-8"?>
<svg width="60px" height="80px" viewBox="0 0 60 80" version="1.1" xmlns="http://www.w3.org/2000/svg" xmlns:xlink="http://www.w3.org/1999/xlink">
    <title>Icon-Pillow-60*80</title>
    <g id="Icon-Pillow-60*80" stroke="none" stroke-width="1" fill="none" fill-rule="evenodd">
        <path d="M60,0 L60,80 L0,80 L0,0 L60,0 Z M54.7524429,1.49252542 C43.5110652,3.28679691 35.1768075,4.18367347 29.7497517,4.18367347 C24.4658448,4.18367347 16.5009101,3.33348657 5.85494762,1.63311277 L5.12497665,1.5155831 C4.0343831,1.34042749 3.00829066,2.08253656 2.83313505,3.17313011 C2.78798412,3.45425904 2.80338071,3.74178826 2.87829509,4.01648794 L2.87786775,4.01660448 C5.07315883,12.0922775 6.17080437,20.6377631 6.17080437,29.6530612 C6.17080437,39.4021915 4.88719264,54.9706847 2.31996918,76.3585409 L2.32032796,76.3585845 C2.18704885,77.4550837 2.967893,78.452016 4.06439218,78.5852951 C4.24910747,78.6077471 4.43605231,78.6043118 4.61981801,78.5750885 C16.1409347,76.7358526 24.5175891,75.8163265 29.7497517,75.8163265 C34.9922065,75.8163265 43.5366615,76.7394737 55.3831167,78.585768 L55.3830668,78.5860901 C56.4746388,78.7550408 57.4964943,78.0071084 57.665445,76.9155363 C57.6935918,76.7336824 57.6965061,76.5488139 57.6741054,76.3661631 C54.7990539,53.0285705 53.3507397,37.4575176 53.3286991,29.6530612 C53.3085834,22.5301822 54.455046,14.2794225 56.768087,4.90078214 L57.0031014,3.95911333 C57.2743034,2.88835508 56.626135,1.80048132 55.5553768,1.52927929 C55.2929771,1.46281859 55.019817,1.45031484 54.7524429,1.49252542 Z" id="Combined-Shape" fill="#FFFFFF"></path>
        <path d="M56.8653341,1.4649488 C57.5395586,1.5565332 57.7528143,1.72843461 57.8817303,1.94951582 C58.0106463,2.17059702 58.0552226,2.44085802 57.9846426,2.70888764 L57.9846426,2.70888764 L57.7376503,3.65078364 C55.2173552,13.4071499 53.9731983,21.9874809 53.9950391,29.3907053 C54.0187391,37.4241267 55.5737219,53.460353 58.6680057,77.4980594 C58.6243409,78.0454403 58.4767348,78.2761793 58.27104,78.4284485 C58.0653452,78.5807176 57.8015617,78.6545167 57.5281824,78.6137152 L57.5281824,78.6137152 L56.7936313,78.5042835 C44.3181936,76.6550764 35.297482,75.7346939 29.7318769,75.7346939 C24.0667356,75.7346939 14.9795577,76.688107 2.46995813,78.6036834 C1.9192182,78.5731145 1.68511567,78.4309032 1.52811379,78.2287977 C1.37111192,78.0266921 1.29121071,77.7646924 1.32569605,77.4901248 L1.32569605,77.4901248 L1.44301505,76.5516306 C4.12874211,55.0025231 5.46871897,39.2811566 5.46871897,29.3877551 C5.46871897,20.0168345 4.27186349,11.1359964 1.88050505,2.74333228 C1.89690187,2.04777226 2.04588215,1.8179181 2.25248188,1.66687908 C2.45908161,1.51584006 2.72330078,1.44361618 2.99644852,1.48605081 C8.08904682,2.27573746 12.6283391,2.89661072 16.6142874,3.34934714 L17.7934716,3.48012464 C22.6375705,4.00401943 26.6170637,4.26530612 29.7318769,4.26530612 C35.6101185,4.26530612 44.6543231,3.33454397 56.8653341,1.4649488 Z" id="Path-4" stroke="#979797" stroke-width="2"></path>
    </g>
</svg>