<?xml version="1.0" encoding="UTF-8"?>
<svg width="32px" height="32px" viewBox="0 0 32 32" version="1.1" xmlns="http://www.w3.org/2000/svg" xmlns:xlink="http://www.w3.org/1999/xlink">
    <title>Icon-Filter</title>
    <g id="Icon-Filter" stroke="none" stroke-width="1" fill="none" fill-rule="evenodd">
        <g id="Group" fill-rule="nonzero">
            <path d="M16,1 C20.141875,1 23.8918653,2.67907887 26.6063932,5.39360678 C29.3209211,8.1081347 31,11.858125 31,16 C31,20.141875 29.3209211,23.8918653 26.6063932,26.6063932 C23.8918653,29.3209211 20.141875,31 16,31 C11.858125,31 8.1081347,29.3209211 5.39360678,26.6063932 C2.67907887,23.8918653 1,20.141875 1,16 C1,11.858125 2.67907887,8.1081347 5.39360678,5.39360678 C8.1081347,2.67907887 11.858125,1 16,1 Z" id="Background" stroke="#302D46" stroke-width="2" fill="#FFFFFF"></path>
            <path d="M9.33270812,15 C9.82210359,12.1063339 12.1063339,9.82210359 15,9.33270812 L15,7 C10.8251335,7.52171404 7.52171404,10.8251335 7,15 L9.33270812,15 Z M17,9.33270812 C19.8936661,9.82094936 22.1778964,12.1051796 22.6672919,15 L25,15 C24.478286,10.8251335 21.1748665,7.52171404 17,7 L17,9.33270812 Z M22.6672919,17 C22.1778964,19.8936661 19.8936661,22.1778964 17,22.6672919 L17,25 C21.1748665,24.478286 24.478286,21.1748665 25,17 L22.6672919,17 Z M15,22.6672919 C12.1063339,22.1778964 9.82210359,19.8936661 9.33270812,17 L7,17 C7.52171404,21.1748665 10.8239792,24.478286 15,25 L15,22.6672919 Z" id="Shape" fill="#263E7D"></path>
            <path d="M16,13 C14.344,13 13,14.344 13,16 C13,17.656 14.344,19 16,19 C17.656,19 19,17.656 19,16 C19,14.344 17.656,13 16,13 Z" id="Path" fill="#892E2F"></path>
        </g>
    </g>
</svg>