<?xml version="1.0" encoding="UTF-8"?>
<svg width="32px" height="32px" viewBox="0 0 32 32" version="1.1" xmlns="http://www.w3.org/2000/svg" xmlns:xlink="http://www.w3.org/1999/xlink">
    <title>Market-Hot Tags-Icon</title>
    <g id="Market-Hot-Tags-Icon" stroke="none" stroke-width="1" fill="none" fill-rule="evenodd">
        <path d="M16,1 C20.141875,1 23.8918653,2.67907887 26.6063932,5.39360678 C29.3209211,8.1081347 31,11.858125 31,16 C31,20.141875 29.3209211,23.8918653 26.6063932,26.6063932 C23.8918653,29.3209211 20.141875,31 16,31 C11.858125,31 8.1081347,29.3209211 5.39360678,26.6063932 C2.67907887,23.8918653 1,20.141875 1,16 C1,11.858125 2.67907887,8.1081347 5.39360678,5.39360678 C8.1081347,2.67907887 11.858125,1 16,1 Z" id="Background" stroke="#302D46" stroke-width="2" fill="#FFFFFF" fill-rule="nonzero"></path>
        <path d="M9.0625,6 C9.50305556,11.3917114 5,13.2479481 5,17.9969142 C5,21.2226411 7.2165,23.9758714 11.5,24 C15.7835,24.0238711 18,20.6893949 18,17.2829193 C18,14.1771915 16.5107778,11.2484625 13.7013333,9.42747548 C14.3686667,11.3827115 13.4803333,13.1684487 12.6172778,13.7834443 C12.6678333,11.2807122 11.8047778,7.56673879 9.0625,6 Z M13.4490399,15 C16.4358734,18.1025556 14.6016156,22 12.2026037,22 C10.7429926,22 9.99210826,21.0161111 10.0000625,19.9956667 C10.0151757,18.1033333 12.17715,18.1017778 13.4490399,15 Z" id="Shape" stroke="#892E2F" fill="#EF392A"></path>
        <path d="M20.1157703,18.9129288 L19,18.9129288 L19,17.171504 L20.4767548,17.171504 L20.9690064,14.8364116 L19,14.8364116 L19,13.0870712 L21.3381951,13.0870712 L21.9863263,10 L23.8240656,10 L23.1759344,13.0870712 L24.9890611,13.0870712 L25.620784,10 L27.5241568,10 L26.8678213,13.0870712 L28,13.0870712 L28,14.8364116 L26.4986326,14.8364116 L26.006381,17.171504 L28,17.171504 L28,18.9129288 L25.6371923,18.9129288 L24.9890611,22 L23.159526,22 L23.7912489,18.9129288 L21.969918,18.9129288 L21.3217867,22 L19.467639,22 L20.1157703,18.9129288 Z M22.8149499,14.8364116 L22.3309025,17.171504 L24.1522334,17.171504 L24.6280766,14.8364116 L22.8149499,14.8364116 Z" id="Shape" fill="#FD7700" fill-rule="nonzero"></path>
    </g>
</svg>