<?xml version="1.0" encoding="UTF-8"?>
<svg width="32px" height="32px" viewBox="0 0 32 32" version="1.1" xmlns="http://www.w3.org/2000/svg" xmlns:xlink="http://www.w3.org/1999/xlink">
    <title>Icon-Bid</title>
    <g id="Icon-Bid" stroke="none" stroke-width="1" fill="none" fill-rule="evenodd">
        <g id="Group" fill-rule="nonzero">
            <path d="M16,1 C20.141875,1 23.8918653,2.67907887 26.6063932,5.39360678 C29.3209211,8.1081347 31,11.858125 31,16 C31,20.141875 29.3209211,23.8918653 26.6063932,26.6063932 C23.8918653,29.3209211 20.141875,31 16,31 C11.858125,31 8.1081347,29.3209211 5.39360678,26.6063932 C2.67907887,23.8918653 1,20.141875 1,16 C1,11.858125 2.67907887,8.1081347 5.39360678,5.39360678 C8.1081347,2.67907887 11.858125,1 16,1 Z" id="Background" stroke="#302D46" stroke-width="2" fill="#263E7D"></path>
            <path d="M23,20.8395833 C23,17.1635417 19.9769945,15.6708333 17,14.3239583 L17,9.47708333 C18.4199953,9.53125 19.8499946,9.94895833 21.159994,10.4291667 L21.8849936,6.996875 C20.0709945,6.42291667 18.4469953,6.16041667 17,6.12083333 L17,4 L15,4 L15,6.22291667 C11.108999,6.78020833 9.03099998,9.321875 9.03099998,12.1604167 C9.03099998,16.178125 12.5889982,17.5 15,18.3260417 L15,23.234375 C13.2939979,23.2145833 11.4079988,22.5885417 9.90899955,21.9822917 L9,25.4072917 C10.7869991,26.36875 12.930998,26.8833333 15,26.9208333 L15,29 L17,29 L17,26.8072917 C20.3119944,26.3239583 23.004993,24.41875 23,20.8395833 Z M14,11 L14,15 C11.3879268,13.9419874 11.279293,11.816772 14,11 Z M16,23 L16,19 C18.8459646,20.1862991 18.481137,22.1901977 16,23 Z" id="Shape" fill="#F5A623"></path>
        </g>
    </g>
</svg>