<?xml version="1.0" encoding="UTF-8"?>
<svg width="32px" height="32px" viewBox="0 0 32 32" version="1.1" xmlns="http://www.w3.org/2000/svg" xmlns:xlink="http://www.w3.org/1999/xlink">
    <title>Icon-New</title>
    <g id="Icon-New" stroke="none" stroke-width="1" fill="none" fill-rule="evenodd">
        <path d="M16,1 C20.141875,1 23.8918653,2.67907887 26.6063932,5.39360678 C29.3209211,8.1081347 31,11.858125 31,16 C31,20.141875 29.3209211,23.8918653 26.6063932,26.6063932 C23.8918653,29.3209211 20.141875,31 16,31 C11.858125,31 8.1081347,29.3209211 5.39360678,26.6063932 C2.67907887,23.8918653 1,20.141875 1,16 C1,11.858125 2.67907887,8.1081347 5.39360678,5.39360678 C8.1081347,2.67907887 11.858125,1 16,1 Z" id="Background" stroke="#302D46" stroke-width="2" fill="#FFFFFF" fill-rule="nonzero"></path>
        <path d="M16,5.26929552 L18.6288754,11.4033381 L23.6967241,13.092621 L18.5764394,15.6527633 L16,25.0997076 L13.41886,15.6355276 L7.4895883,13.0944112 L13.3659312,11.4154561 L16,5.26929552 Z" id="Star" stroke="#F5A623" fill="#FFDF00"></path>
    </g>
</svg>