<?xml version="1.0" encoding="UTF-8"?>
<svg width="80px" height="80px" viewBox="0 0 80 80" version="1.1" xmlns="http://www.w3.org/2000/svg" xmlns:xlink="http://www.w3.org/1999/xlink">
    <title>Icon-Pillow-Selected</title>
    <g id="Icon-Pillow-Selected" stroke="none" stroke-width="1" fill="none" fill-rule="evenodd">
        <rect id="Rectangle" stroke="#979797" fill="#AAFFC9" x="0.5" y="0.5" width="79" height="79"></rect>
        <g id="Group">
            <path d="M80,0 L80,80 L0,80 L0,0 L80,0 Z M64.7524429,1.49252542 C53.5110652,3.28679691 45.1768075,4.18367347 39.7497517,4.18367347 C34.4658448,4.18367347 26.5009101,3.33348657 15.8549476,1.63311277 L15.1249766,1.5155831 C14.0343831,1.34042749 13.0082907,2.08253656 12.833135,3.17313011 C12.7879841,3.45425904 12.8033807,3.74178826 12.8782951,4.01648794 L12.8778678,4.01660448 C15.0731588,12.0922775 16.1708044,20.6377631 16.1708044,29.6530612 C16.1708044,39.4021915 14.8871926,54.9706847 12.3199692,76.3585409 L12.320328,76.3585845 C12.1870488,77.4550837 12.967893,78.452016 14.0643922,78.5852951 C14.2491075,78.6077471 14.4360523,78.6043118 14.619818,78.5750885 C26.1409347,76.7358526 34.5175891,75.8163265 39.7497517,75.8163265 C44.9922065,75.8163265 53.5366615,76.7394737 65.3831167,78.585768 L65.3830668,78.5860901 C66.4746388,78.7550408 67.4964943,78.0071084 67.665445,76.9155363 C67.6935918,76.7336824 67.6965061,76.5488139 67.6741054,76.3661631 C64.7990539,53.0285705 63.3507397,37.4575176 63.3286991,29.6530612 C63.3085834,22.5301822 64.455046,14.2794225 66.768087,4.90078214 L67.0031014,3.95911333 C67.2743034,2.88835508 66.626135,1.80048132 65.5553768,1.52927929 C65.2929771,1.46281859 65.019817,1.45031484 64.7524429,1.49252542 Z" id="Combined-Shape" fill="#FFFFFF"></path>
            <path d="M66.8653341,1.4649488 C67.5395586,1.5565332 67.7528143,1.72843461 67.8817303,1.94951582 C68.0106463,2.17059702 68.0552226,2.44085802 67.9846426,2.70888764 L67.9846426,2.70888764 L67.7376503,3.65078364 C65.2173552,13.4071499 63.9731983,21.9874809 63.9950391,29.3907053 C64.0187391,37.4241267 65.5737219,53.460353 68.6680057,77.4980594 C68.6243409,78.0454403 68.4767348,78.2761793 68.27104,78.4284485 C68.0653452,78.5807176 67.8015617,78.6545167 67.5281824,78.6137152 L67.5281824,78.6137152 L66.7936313,78.5042835 C54.3181936,76.6550764 45.297482,75.7346939 39.7318769,75.7346939 C34.0667356,75.7346939 24.9795577,76.688107 12.4699581,78.6036834 C11.9192182,78.5731145 11.6851157,78.4309032 11.5281138,78.2287977 C11.3711119,78.0266921 11.2912107,77.7646924 11.3256961,77.4901248 L11.3256961,77.4901248 L11.443015,76.5516306 C14.1287421,55.0025231 15.468719,39.2811566 15.468719,29.3877551 C15.468719,20.0168345 14.2718635,11.1359964 11.880505,2.74333228 C11.8969019,2.04777226 12.0458822,1.8179181 12.2524819,1.66687908 C12.4590816,1.51584006 12.7233008,1.44361618 12.9964485,1.48605081 C18.0890468,2.27573746 22.6283391,2.89661072 26.6142874,3.34934714 L27.7934716,3.48012464 C32.6375705,4.00401943 36.6170637,4.26530612 39.7318769,4.26530612 C45.6101185,4.26530612 54.6543231,3.33454397 66.8653341,1.4649488 Z" id="Path-4" stroke="#979797" stroke-width="2"></path>
        </g>
    </g>
</svg>