<?xml version="1.0" encoding="UTF-8"?>
<svg width="32px" height="32px" viewBox="0 0 32 32" version="1.1" xmlns="http://www.w3.org/2000/svg" xmlns:xlink="http://www.w3.org/1999/xlink">
    <title>Icon-website</title>
    <g id="Icon-website" stroke="none" stroke-width="1" fill="none" fill-rule="evenodd">
        <g id="Group">
            <circle id="Background" stroke="#302D46" fill="#FFFFFF" cx="16" cy="16" r="15.5"></circle>
            <path d="M25.0466657,6.95456041 C27.6511114,9.55970114 27.6511114,13.7860063 25.0466657,16.3920868 L21.4374736,20 L19.4439588,18.0057328 L23.0522111,14.3968798 C24.5551013,12.8950707 24.5551013,10.4506367 23.0512712,8.94882759 C21.5493209,7.44607866 19.1046572,7.44607866 17.6027069,8.94788779 L13.9935147,12.5558009 L12,10.5624736 L15.6091922,6.95456041 C18.2136379,4.34847986 22.4394003,4.34847986 25.0466657,6.95456041 Z M18.0065321,19.4424943 L14.3974248,23.0504922 C12.8955098,24.5542163 10.4509035,24.5532765 8.94710873,23.0504922 C7.44519374,21.5486478 7.44519374,19.1032166 8.94710873,17.602312 L12.5562161,13.9933742 L10.5627482,12 L6.95364084,15.6089378 C4.34925634,18.2141397 4.34831647,22.4396043 6.95364084,25.0457461 C9.55990508,27.650948 13.7865081,27.6518879 16.3908926,25.0457461 L20,21.4368083 L18.0065321,19.4424943 Z" id="Shape" fill="#302D46" fill-rule="nonzero"></path>
        </g>
    </g>
</svg>