<?xml version="1.0" encoding="UTF-8"?>
<svg width="24px" height="24px" viewBox="0 0 24 24" version="1.1" xmlns="http://www.w3.org/2000/svg" xmlns:xlink="http://www.w3.org/1999/xlink">
    <title>Icon-Marked</title>
    <g id="Icon-Marked" stroke="none" stroke-width="1" fill="none" fill-rule="evenodd">
        <g id="Group" fill-rule="nonzero">
            <path d="M12,0 C5.373,0 0,5.373 0,12 C0,18.627 5.373,24 12,24 C18.627,24 24,18.627 24,12 C24,5.373 18.627,0 12,0 Z" id="Background" fill="#302D46"></path>
            <path d="M12,0 C17.514,0 22,4.486 22,10 C22,15.514 17.514,20 12,20 C6.486,20 2,15.514 2,10 C2,4.486 6.486,0 12,0 Z" id="Background" fill="#FFFFFF"></path>
            <polygon id="Shape" fill="#263E7D" points="10 17 11.5 12 7 12 14 3 12.5 8 17 8"></polygon>
        </g>
    </g>
</svg>