<?xml version="1.0" encoding="UTF-8"?>
<svg width="24px" height="24px" viewBox="0 0 24 24" version="1.1" xmlns="http://www.w3.org/2000/svg" xmlns:xlink="http://www.w3.org/1999/xlink">
    <title>Icon-Twitter</title>
    <g id="Icon-Twitter" stroke="none" stroke-width="1" fill="none" fill-rule="evenodd">
        <circle id="Background" stroke="#302D46" fill="#FFFFFF" cx="12" cy="12" r="11.5"></circle>
        <path d="M18.535685,8.30224569 C18.0376846,8.52332855 17.502461,8.67222108 16.9407301,8.73933552 C17.5143048,8.39586751 17.9547785,7.85162018 18.1617617,7.20303527 C17.6254102,7.52112387 17.030968,7.75235849 16.3981747,7.87699959 C15.8922785,7.33726415 15.1698113,7 14.3712059,7 C12.5782916,7 11.2608183,8.67278507 11.6657609,10.4093007 C9.35849057,10.2936833 7.31234619,9.18826907 5.94242207,7.50815217 C5.214879,8.75625513 5.56511485,10.3889971 6.80137408,11.2158019 C6.34680066,11.2011382 5.91817063,11.0764971 5.54424733,10.868386 C5.51379204,12.15484 6.43591058,13.358388 7.7714315,13.6262818 C7.3805886,13.7323113 6.95252256,13.7571267 6.51712469,13.6736567 C6.87018048,14.776815 7.89550861,15.5793683 9.11146432,15.6019278 C7.94401148,16.5172785 6.47313372,16.926169 5,16.752461 C6.2289274,17.5403507 7.68908942,18 9.25697293,18 C14.4129409,18 17.3259331,13.6454573 17.1499692,9.73984824 C17.6925246,9.34787736 18.1634537,8.85890074 18.535685,8.30224569 Z" id="Path" fill="#302D46" fill-rule="nonzero"></path>
    </g>
</svg>