<?xml version="1.0" encoding="UTF-8"?>
<svg width="24px" height="24px" viewBox="0 0 24 24" version="1.1" xmlns="http://www.w3.org/2000/svg" xmlns:xlink="http://www.w3.org/1999/xlink">
    <title>Icon-Like-Unselected</title>
    <g id="Icon-Like-Unselected" stroke="none" stroke-width="1" fill="none" fill-rule="evenodd">
        <path d="M18,0 L24,5.45454545 L24,13.0909091 L23.313,13.714 L21.935,12.128 L22,12.0698182 L22,6.47672727 L17.867,2.71963636 L12,6.98618182 L6.133,2.71963636 L2,6.47672727 L2,12.0687273 L12,21.1603636 L16.013,17.511 L17.392,19.098 L12,24 L0,13.0909091 L0,5.45454545 L6,0 L12,4.36363636 L18,0 Z M21,12 L21,15 L24,15 L24,17 L21,17 L21,20 L19,20 L19,17 L16,17 L16,15 L19,15 L19,12 L21,12 Z" id="Combined-Shape" fill="#FFB3C1" fill-rule="nonzero"></path>
    </g>
</svg>